<svg width="682pt" height="662pt" xmlns="http://www.w3.org/2000/svg" xmlns:xlink="http://www.w3.org/1999/xlink" xmlns:ev="http://www.w3.org/2001/xml-events" style="overflow: hidden; "><g id="viewport-20230905124958414" class="svg-pan-zoom_viewport" transform="matrix(0.8534300923347473,0,0,0.8534300923347473,94.41206359863281,70.59998321533203)" style="transform: matrix(0.85343, 0, 0, 0.85343, 94.4121, 70.6);">
<g id="graph0" class="graph" transform="scale(1 1) rotate(0) translate(4 657.8)">
<title>%0</title>
<polygon fill="#ffffff" stroke="transparent" points="-4,4 -4,-657.8 678.1634,-657.8 678.1634,4 -4,4"></polygon>
<g id="clust6" class="cluster">
<title>cluster_1</title>
<polygon fill="none" stroke="#000000" points="216.1634,-593.8 216.1634,-645.8 610.1634,-645.8 610.1634,-593.8 216.1634,-593.8"></polygon>
</g>
<!-- Anticipate -->
<g id="node1" class="node">
<title>Anticipate</title>
<path fill="#c0c0c0" stroke="#000000" d="M590.4769,-637.8C590.4769,-637.8 539.8499,-637.8 539.8499,-637.8 533.8499,-637.8 527.8499,-631.8 527.8499,-625.8 527.8499,-625.8 527.8499,-613.8 527.8499,-613.8 527.8499,-607.8 533.8499,-601.8 539.8499,-601.8 539.8499,-601.8 590.4769,-601.8 590.4769,-601.8 596.4769,-601.8 602.4769,-607.8 602.4769,-613.8 602.4769,-613.8 602.4769,-625.8 602.4769,-625.8 602.4769,-631.8 596.4769,-637.8 590.4769,-637.8"></path>
<text text-anchor="middle" x="565.1634" y="-615.6" font-family="Times,serif" font-size="14.00" fill="#000000">Anticipate</text>
</g>
<!-- Achieved -->
<g id="node2" class="node">
<title>Achieved</title>
<path fill="#98fb98" stroke="#000000" d="M497.8053,-637.8C497.8053,-637.8 452.5215,-637.8 452.5215,-637.8 446.5215,-637.8 440.5215,-631.8 440.5215,-625.8 440.5215,-625.8 440.5215,-613.8 440.5215,-613.8 440.5215,-607.8 446.5215,-601.8 452.5215,-601.8 452.5215,-601.8 497.8053,-601.8 497.8053,-601.8 503.8053,-601.8 509.8053,-607.8 509.8053,-613.8 509.8053,-613.8 509.8053,-625.8 509.8053,-625.8 509.8053,-631.8 503.8053,-637.8 497.8053,-637.8"></path>
<text text-anchor="middle" x="475.1634" y="-615.6" font-family="Times,serif" font-size="14.00" fill="#000000">Achieved</text>
</g>
<!-- Wiki -->
<g id="node3" class="node">
<title>Wiki</title>
<path fill="#add8e6" stroke="#000000" d="M410.1634,-637.8C410.1634,-637.8 380.1634,-637.8 380.1634,-637.8 374.1634,-637.8 368.1634,-631.8 368.1634,-625.8 368.1634,-625.8 368.1634,-613.8 368.1634,-613.8 368.1634,-607.8 374.1634,-601.8 380.1634,-601.8 380.1634,-601.8 410.1634,-601.8 410.1634,-601.8 416.1634,-601.8 422.1634,-607.8 422.1634,-613.8 422.1634,-613.8 422.1634,-625.8 422.1634,-625.8 422.1634,-631.8 416.1634,-637.8 410.1634,-637.8"></path>
<text text-anchor="middle" x="395.1634" y="-615.6" font-family="Times,serif" font-size="14.00" fill="#000000">Wiki</text>
</g>
<!-- PWA -->
<g id="node6" class="node">
<title>PWA</title>
<path fill="#98fb98" stroke="#000000" d="M440.1242,-564.6019C440.1242,-564.6019 350.2026,-564.6019 350.2026,-564.6019 344.2026,-564.6019 338.2026,-558.6019 338.2026,-552.6019 338.2026,-552.6019 338.2026,-535.3981 338.2026,-535.3981 338.2026,-529.3981 344.2026,-523.3981 350.2026,-523.3981 350.2026,-523.3981 440.1242,-523.3981 440.1242,-523.3981 446.1242,-523.3981 452.1242,-529.3981 452.1242,-535.3981 452.1242,-535.3981 452.1242,-552.6019 452.1242,-552.6019 452.1242,-558.6019 446.1242,-564.6019 440.1242,-564.6019"></path>
<text text-anchor="middle" x="395.1634" y="-548.2" font-family="Times,serif" font-size="14.00" fill="#000000">Progressive</text>
<text text-anchor="middle" x="395.1634" y="-531.4" font-family="Times,serif" font-size="14.00" fill="#000000">Web App (PWA)</text>
</g>
<!-- Wiki&#45;&gt;PWA -->
<!-- Edit -->
<g id="node16" class="node">
<title>Edit</title>
<path fill="#c0c0c0" stroke="#000000" d="M542.5354,-470.6014C542.5354,-470.6014 493.7914,-470.6014 493.7914,-470.6014 487.7914,-470.6014 481.7914,-464.6014 481.7914,-458.6014 481.7914,-458.6014 481.7914,-423.7986 481.7914,-423.7986 481.7914,-417.7986 487.7914,-411.7986 493.7914,-411.7986 493.7914,-411.7986 542.5354,-411.7986 542.5354,-411.7986 548.5354,-411.7986 554.5354,-417.7986 554.5354,-423.7986 554.5354,-423.7986 554.5354,-458.6014 554.5354,-458.6014 554.5354,-464.6014 548.5354,-470.6014 542.5354,-470.6014"></path>
<text text-anchor="middle" x="518.1634" y="-453.8" font-family="Times,serif" font-size="14.00" fill="#000000">editor and</text>
<text text-anchor="middle" x="518.1634" y="-437" font-family="Times,serif" font-size="14.00" fill="#000000">download</text>
<text text-anchor="middle" x="518.1634" y="-420.2" font-family="Times,serif" font-size="14.00" fill="#000000">pages</text>
</g>
<!-- Wiki&#45;&gt;Edit -->
<!-- Tool -->
<g id="node4" class="node">
<title>Tool</title>
<path fill="#ffe4c4" stroke="#000000" d="M338.1634,-637.8C338.1634,-637.8 308.1634,-637.8 308.1634,-637.8 302.1634,-637.8 296.1634,-631.8 296.1634,-625.8 296.1634,-625.8 296.1634,-613.8 296.1634,-613.8 296.1634,-607.8 302.1634,-601.8 308.1634,-601.8 308.1634,-601.8 338.1634,-601.8 338.1634,-601.8 344.1634,-601.8 350.1634,-607.8 350.1634,-613.8 350.1634,-613.8 350.1634,-625.8 350.1634,-625.8 350.1634,-631.8 344.1634,-637.8 338.1634,-637.8"></path>
<text text-anchor="middle" x="323.1634" y="-615.6" font-family="Times,serif" font-size="14.00" fill="#000000">Tool</text>
</g>
<!-- Parts -->
<g id="node5" class="node">
<title>Parts</title>
<path fill="#ffc0cb" stroke="#000000" d="M266.1634,-637.8C266.1634,-637.8 236.1634,-637.8 236.1634,-637.8 230.1634,-637.8 224.1634,-631.8 224.1634,-625.8 224.1634,-625.8 224.1634,-613.8 224.1634,-613.8 224.1634,-607.8 230.1634,-601.8 236.1634,-601.8 236.1634,-601.8 266.1634,-601.8 266.1634,-601.8 272.1634,-601.8 278.1634,-607.8 278.1634,-613.8 278.1634,-613.8 278.1634,-625.8 278.1634,-625.8 278.1634,-631.8 272.1634,-637.8 266.1634,-637.8"></path>
<text text-anchor="middle" x="251.1634" y="-615.6" font-family="Times,serif" font-size="14.00" fill="#000000">Parts</text>
</g>
<!-- SW -->
<g id="node7" class="node">
<title>SW</title>
<path fill="#98fb98" stroke="#000000" d="M414.4143,-461.8019C414.4143,-461.8019 379.9125,-461.8019 379.9125,-461.8019 373.9125,-461.8019 367.9125,-455.8019 367.9125,-449.8019 367.9125,-449.8019 367.9125,-432.5981 367.9125,-432.5981 367.9125,-426.5981 373.9125,-420.5981 379.9125,-420.5981 379.9125,-420.5981 414.4143,-420.5981 414.4143,-420.5981 420.4143,-420.5981 426.4143,-426.5981 426.4143,-432.5981 426.4143,-432.5981 426.4143,-449.8019 426.4143,-449.8019 426.4143,-455.8019 420.4143,-461.8019 414.4143,-461.8019"></path>
<text text-anchor="middle" x="397.1634" y="-445.4" font-family="Times,serif" font-size="14.00" fill="#000000">Service</text>
<text text-anchor="middle" x="397.1634" y="-428.6" font-family="Times,serif" font-size="14.00" fill="#000000">Worker</text>
</g>
<!-- PWA&#45;&gt;SW -->
<g id="edge30" class="edge">
<title>PWA-&gt;SW</title>
<path fill="none" stroke="#000000" d="M395.5681,-523.1969C395.8528,-508.5663 396.2386,-488.7358 396.5595,-472.2414"></path>
<polygon fill="#000000" stroke="#000000" points="400.064,-472.0384 396.7593,-461.9722 393.0653,-471.9022 400.064,-472.0384"></polygon>
</g>
<!-- Sitemap -->
<g id="node9" class="node">
<title>Sitemap</title>
<path fill="#98fb98" stroke="#000000" d="M338.3045,-461.8019C338.3045,-461.8019 282.0223,-461.8019 282.0223,-461.8019 276.0223,-461.8019 270.0223,-455.8019 270.0223,-449.8019 270.0223,-449.8019 270.0223,-432.5981 270.0223,-432.5981 270.0223,-426.5981 276.0223,-420.5981 282.0223,-420.5981 282.0223,-420.5981 338.3045,-420.5981 338.3045,-420.5981 344.3045,-420.5981 350.3045,-426.5981 350.3045,-432.5981 350.3045,-432.5981 350.3045,-449.8019 350.3045,-449.8019 350.3045,-455.8019 344.3045,-461.8019 338.3045,-461.8019"></path>
<text text-anchor="middle" x="310.1634" y="-445.4" font-family="Times,serif" font-size="14.00" fill="#000000">browse one</text>
<text text-anchor="middle" x="310.1634" y="-428.6" font-family="Times,serif" font-size="14.00" fill="#000000">sitemap</text>
</g>
<!-- PWA&#45;&gt;Sitemap -->
<g id="edge16" class="edge">
<title>PWA-&gt;Sitemap</title>
<path fill="none" stroke="#000000" d="M377.9624,-523.1969C365.2891,-507.8696 347.8969,-486.8353 333.9011,-469.9087"></path>
<polygon fill="#000000" stroke="#000000" points="336.4085,-467.4486 327.3388,-461.9722 331.0138,-471.9093 336.4085,-467.4486"></polygon>
</g>
<!-- PWA&#45;&gt;Edit -->
<g id="edge5" class="edge">
<title>PWA-&gt;Edit</title>
<path fill="none" stroke="#000000" d="M439.3104,-523.3487C448.6208,-518.0624 458.0672,-511.941 466.1634,-505.2 475.3536,-497.5482 484.0827,-488.076 491.6731,-478.7859"></path>
<polygon fill="#000000" stroke="#000000" points="494.5903,-480.739 498.0334,-470.7192 489.0934,-476.4049 494.5903,-480.739"></polygon>
</g>
<!-- EditCode -->
<g id="node17" class="node">
<title>EditCode</title>
<path fill="#c0c0c0" stroke="#000000" d="M160.2501,-459.2C160.2501,-459.2 106.0767,-459.2 106.0767,-459.2 100.0767,-459.2 94.0767,-453.2 94.0767,-447.2 94.0767,-447.2 94.0767,-435.2 94.0767,-435.2 94.0767,-429.2 100.0767,-423.2 106.0767,-423.2 106.0767,-423.2 160.2501,-423.2 160.2501,-423.2 166.2501,-423.2 172.2501,-429.2 172.2501,-435.2 172.2501,-435.2 172.2501,-447.2 172.2501,-447.2 172.2501,-453.2 166.2501,-459.2 160.2501,-459.2"></path>
<text text-anchor="middle" x="133.1634" y="-437" font-family="Times,serif" font-size="14.00" fill="#000000">code editor</text>
</g>
<!-- PWA&#45;&gt;EditCode -->
<g id="edge11" class="edge">
<title>PWA-&gt;EditCode</title>
<path fill="none" stroke="#000000" d="M338.1601,-527.9717C316.1223,-521.4144 290.8037,-513.4369 268.1634,-505.2 230.9586,-491.6643 221.7702,-487.7082 186.1634,-470.4 182.1213,-468.4352 177.95,-466.3115 173.8056,-464.1371"></path>
<polygon fill="#000000" stroke="#000000" points="175.3048,-460.9698 164.8365,-459.3376 172.0021,-467.1417 175.3048,-460.9698"></polygon>
</g>
<!-- Offline -->
<g id="node8" class="node">
<title>Offline</title>
<path fill="#98fb98" stroke="#000000" d="M441.4738,-193.0019C441.4738,-193.0019 348.853,-193.0019 348.853,-193.0019 342.853,-193.0019 336.853,-187.0019 336.853,-181.0019 336.853,-181.0019 336.853,-163.7981 336.853,-163.7981 336.853,-157.7981 342.853,-151.7981 348.853,-151.7981 348.853,-151.7981 441.4738,-151.7981 441.4738,-151.7981 447.4738,-151.7981 453.4738,-157.7981 453.4738,-163.7981 453.4738,-163.7981 453.4738,-181.0019 453.4738,-181.0019 453.4738,-187.0019 447.4738,-193.0019 441.4738,-193.0019"></path>
<text text-anchor="middle" x="395.1634" y="-176.6" font-family="Times,serif" font-size="14.00" fill="#000000">offline mode with</text>
<text text-anchor="middle" x="395.1634" y="-159.8" font-family="Times,serif" font-size="14.00" fill="#000000">known files</text>
</g>
<!-- SW&#45;&gt;Offline -->
<g id="edge31" class="edge">
<title>SW-&gt;Offline</title>
<path fill="none" stroke="#000000" d="M397.0098,-420.554C396.6608,-373.6466 395.8065,-258.8335 395.3939,-203.3782"></path>
<polygon fill="#000000" stroke="#000000" points="398.8919,-203.0899 395.3175,-193.1163 391.8921,-203.1421 398.8919,-203.0899"></polygon>
</g>
<!-- Page -->
<g id="node10" class="node">
<title>Page</title>
<path fill="#7ccd7c" stroke="#000000" d="M331.3074,-374.8019C331.3074,-374.8019 289.0194,-374.8019 289.0194,-374.8019 283.0194,-374.8019 277.0194,-368.8019 277.0194,-362.8019 277.0194,-362.8019 277.0194,-345.5981 277.0194,-345.5981 277.0194,-339.5981 283.0194,-333.5981 289.0194,-333.5981 289.0194,-333.5981 331.3074,-333.5981 331.3074,-333.5981 337.3074,-333.5981 343.3074,-339.5981 343.3074,-345.5981 343.3074,-345.5981 343.3074,-362.8019 343.3074,-362.8019 343.3074,-368.8019 337.3074,-374.8019 331.3074,-374.8019"></path>
<text text-anchor="middle" x="310.1634" y="-358.4" font-family="Times,serif" font-size="14.00" fill="#000000">fetch</text>
<text text-anchor="middle" x="310.1634" y="-341.6" font-family="Times,serif" font-size="14.00" fill="#000000">one page</text>
</g>
<!-- Sitemap&#45;&gt;Page -->
<g id="edge17" class="edge">
<title>Sitemap-&gt;Page</title>
<path fill="none" stroke="#000000" d="M310.1634,-420.5822C310.1634,-410.0411 310.1634,-396.9939 310.1634,-385.2638"></path>
<polygon fill="#000000" stroke="#000000" points="313.6635,-384.9713 310.1634,-374.9713 306.6635,-384.9713 313.6635,-384.9713"></polygon>
</g>
<!-- Cache -->
<g id="node20" class="node">
<title>Cache</title>
<path fill="#c0c0c0" stroke="#000000" d="M247.0186,-374.8019C247.0186,-374.8019 205.3082,-374.8019 205.3082,-374.8019 199.3082,-374.8019 193.3082,-368.8019 193.3082,-362.8019 193.3082,-362.8019 193.3082,-345.5981 193.3082,-345.5981 193.3082,-339.5981 199.3082,-333.5981 205.3082,-333.5981 205.3082,-333.5981 247.0186,-333.5981 247.0186,-333.5981 253.0186,-333.5981 259.0186,-339.5981 259.0186,-345.5981 259.0186,-345.5981 259.0186,-362.8019 259.0186,-362.8019 259.0186,-368.8019 253.0186,-374.8019 247.0186,-374.8019"></path>
<text text-anchor="middle" x="226.1634" y="-358.4" font-family="Times,serif" font-size="14.00" fill="#000000">cache all</text>
<text text-anchor="middle" x="226.1634" y="-341.6" font-family="Times,serif" font-size="14.00" fill="#000000">pages</text>
</g>
<!-- Sitemap&#45;&gt;Cache -->
<g id="edge18" class="edge">
<title>Sitemap-&gt;Cache</title>
<path fill="none" stroke="#000000" d="M290.2566,-420.5822C279.2481,-409.1806 265.4088,-394.847 253.4099,-382.4196"></path>
<polygon fill="#000000" stroke="#000000" points="255.6823,-379.7342 246.2184,-374.9713 250.6465,-384.5964 255.6823,-379.7342"></polygon>
</g>
<!-- Files -->
<g id="node15" class="node">
<title>Files</title>
<path fill="#c0c0c0" stroke="#000000" d="M284.8715,-273.4C284.8715,-273.4 227.4553,-273.4 227.4553,-273.4 221.4553,-273.4 215.4553,-267.4 215.4553,-261.4 215.4553,-261.4 215.4553,-249.4 215.4553,-249.4 215.4553,-243.4 221.4553,-237.4 227.4553,-237.4 227.4553,-237.4 284.8715,-237.4 284.8715,-237.4 290.8715,-237.4 296.8715,-243.4 296.8715,-249.4 296.8715,-249.4 296.8715,-261.4 296.8715,-261.4 296.8715,-267.4 290.8715,-273.4 284.8715,-273.4"></path>
<text text-anchor="middle" x="256.1634" y="-251.2" font-family="Times,serif" font-size="14.00" fill="#000000">known files</text>
</g>
<!-- Page&#45;&gt;Files -->
<g id="edge20" class="edge">
<title>Page-&gt;Files</title>
<path fill="none" stroke="#000000" d="M298.7114,-333.2471C290.6368,-318.4735 279.7479,-298.5509 271.0072,-282.5586"></path>
<polygon fill="#000000" stroke="#000000" points="274.0138,-280.7617 266.1465,-273.6654 267.8713,-284.1189 274.0138,-280.7617"></polygon>
<text text-anchor="middle" x="303.0926" y="-302.8" font-family="Times,serif" font-size="14.00" fill="#000000">cache</text>
</g>
<!-- Site -->
<g id="node11" class="node">
<title>Site</title>
<path fill="#add8e6" stroke="#000000" d="M279.8149,-562C279.8149,-562 220.5119,-562 220.5119,-562 214.5119,-562 208.5119,-556 208.5119,-550 208.5119,-550 208.5119,-538 208.5119,-538 208.5119,-532 214.5119,-526 220.5119,-526 220.5119,-526 279.8149,-526 279.8149,-526 285.8149,-526 291.8149,-532 291.8149,-538 291.8149,-538 291.8149,-550 291.8149,-550 291.8149,-556 285.8149,-562 279.8149,-562"></path>
<text text-anchor="middle" x="250.1634" y="-539.8" font-family="Times,serif" font-size="14.00" fill="#000000">SiteAdaptor</text>
</g>
<!-- Site&#45;&gt;Sitemap -->
<g id="edge3" class="edge">
<title>Site-&gt;Sitemap</title>
<path fill="none" stroke="#000000" d="M260.8902,-525.6214C269.7884,-510.3758 282.6095,-488.4089 292.9429,-470.7045"></path>
<polygon fill="#000000" stroke="#000000" points="296.0677,-472.2938 298.0858,-461.893 290.0221,-468.7653 296.0677,-472.2938"></polygon>
<text text-anchor="middle" x="302.9369" y="-492.6" font-family="Times,serif" font-size="14.00" fill="#000000">informs</text>
</g>
<!-- Site&#45;&gt;Cache -->
<g id="edge4" class="edge">
<title>Site-&gt;Cache</title>
<path fill="none" stroke="#000000" d="M239.6351,-525.9658C231.8256,-511.4901 221.8323,-490.3578 217.6164,-470.4 211.5981,-441.9097 215.0507,-408.7181 219.226,-385.1211"></path>
<polygon fill="#000000" stroke="#000000" points="222.7197,-385.4856 221.1637,-375.0057 215.8447,-384.1686 222.7197,-385.4856"></polygon>
<text text-anchor="middle" x="239.9369" y="-437" font-family="Times,serif" font-size="14.00" fill="#000000">informs</text>
</g>
<!-- Frame -->
<g id="node12" class="node">
<title>Frame</title>
<path fill="#add8e6" stroke="#000000" d="M76.4908,-562C76.4908,-562 11.836,-562 11.836,-562 5.836,-562 -.164,-556 -.164,-550 -.164,-550 -.164,-538 -.164,-538 -.164,-532 5.836,-526 11.836,-526 11.836,-526 76.4908,-526 76.4908,-526 82.4908,-526 88.4908,-532 88.4908,-538 88.4908,-538 88.4908,-550 88.4908,-550 88.4908,-556 82.4908,-562 76.4908,-562"></path>
<text text-anchor="middle" x="44.1634" y="-539.8" font-family="Times,serif" font-size="14.00" fill="#000000">FramePlugin</text>
</g>
<!-- Frame&#45;&gt;EditCode -->
<g id="edge14" class="edge">
<title>Frame-&gt;EditCode</title>
<path fill="none" stroke="#000000" d="M60.0748,-525.6214C74.123,-509.395 94.7631,-485.5545 110.5297,-467.3432"></path>
<polygon fill="#000000" stroke="#000000" points="113.4904,-469.2707 117.3897,-459.4195 108.1982,-464.6889 113.4904,-469.2707"></polygon>
<text text-anchor="middle" x="113.9369" y="-492.6" font-family="Times,serif" font-size="14.00" fill="#000000">informs</text>
</g>
<!-- Plugins -->
<g id="node18" class="node">
<title>Plugins</title>
<path fill="#c0c0c0" stroke="#000000" d="M156.8699,-374.8019C156.8699,-374.8019 109.4569,-374.8019 109.4569,-374.8019 103.4569,-374.8019 97.4569,-368.8019 97.4569,-362.8019 97.4569,-362.8019 97.4569,-345.5981 97.4569,-345.5981 97.4569,-339.5981 103.4569,-333.5981 109.4569,-333.5981 109.4569,-333.5981 156.8699,-333.5981 156.8699,-333.5981 162.8699,-333.5981 168.8699,-339.5981 168.8699,-345.5981 168.8699,-345.5981 168.8699,-362.8019 168.8699,-362.8019 168.8699,-368.8019 162.8699,-374.8019 156.8699,-374.8019"></path>
<text text-anchor="middle" x="133.1634" y="-358.4" font-family="Times,serif" font-size="14.00" fill="#000000">plugins</text>
<text text-anchor="middle" x="133.1634" y="-341.6" font-family="Times,serif" font-size="14.00" fill="#000000">collection</text>
</g>
<!-- Frame&#45;&gt;Plugins -->
<g id="edge15" class="edge">
<title>Frame-&gt;Plugins</title>
<path fill="none" stroke="#000000" d="M38.3569,-525.5595C31.0493,-498.7117 21.6984,-448.1313 41.6164,-412 51.7392,-393.6372 70.4234,-380.3025 88.2853,-371.1006"></path>
<polygon fill="#000000" stroke="#000000" points="90.0114,-374.1541 97.5013,-366.6606 86.9732,-367.8478 90.0114,-374.1541"></polygon>
<text text-anchor="middle" x="63.9369" y="-437" font-family="Times,serif" font-size="14.00" fill="#000000">informs</text>
</g>
<!-- SWCache -->
<g id="node13" class="node">
<title>SWCache</title>
<path fill="#ffe4c4" stroke="#000000" d="M228.1425,-114.6C228.1425,-114.6 176.1843,-114.6 176.1843,-114.6 170.1843,-114.6 164.1843,-108.6 164.1843,-102.6 164.1843,-102.6 164.1843,-90.6 164.1843,-90.6 164.1843,-84.6 170.1843,-78.6 176.1843,-78.6 176.1843,-78.6 228.1425,-78.6 228.1425,-78.6 234.1425,-78.6 240.1425,-84.6 240.1425,-90.6 240.1425,-90.6 240.1425,-102.6 240.1425,-102.6 240.1425,-108.6 234.1425,-114.6 228.1425,-114.6"></path>
<text text-anchor="middle" x="202.1634" y="-92.4" font-family="Times,serif" font-size="14.00" fill="#000000">SW Cache</text>
</g>
<!-- Schema -->
<g id="node21" class="node">
<title>Schema</title>
<path fill="#c0c0c0" stroke="#000000" d="M258.6024,-41.4019C258.6024,-41.4019 211.7244,-41.4019 211.7244,-41.4019 205.7244,-41.4019 199.7244,-35.4019 199.7244,-29.4019 199.7244,-29.4019 199.7244,-12.1981 199.7244,-12.1981 199.7244,-6.1981 205.7244,-.1981 211.7244,-.1981 211.7244,-.1981 258.6024,-.1981 258.6024,-.1981 264.6024,-.1981 270.6024,-6.1981 270.6024,-12.1981 270.6024,-12.1981 270.6024,-29.4019 270.6024,-29.4019 270.6024,-35.4019 264.6024,-41.4019 258.6024,-41.4019"></path>
<text text-anchor="middle" x="235.1634" y="-25" font-family="Times,serif" font-size="14.00" fill="#000000">schema</text>
<text text-anchor="middle" x="235.1634" y="-8.2" font-family="Times,serif" font-size="14.00" fill="#000000">migration</text>
</g>
<!-- SWCache&#45;&gt;Schema -->
<g id="edge26" class="edge">
<title>SWCache-&gt;Schema</title>
<path fill="none" stroke="#000000" d="M210.1518,-78.2509C213.7194,-70.0562 218.0181,-60.1821 222.0378,-50.9492"></path>
<polygon fill="#000000" stroke="#000000" points="225.3006,-52.2227 226.0832,-41.6568 218.8824,-49.4285 225.3006,-52.2227"></polygon>
</g>
<!-- IndexDB -->
<g id="node14" class="node">
<title>IndexDB</title>
<path fill="#ffe4c4" stroke="#000000" d="M134.9826,-114.6C134.9826,-114.6 91.3442,-114.6 91.3442,-114.6 85.3442,-114.6 79.3442,-108.6 79.3442,-102.6 79.3442,-102.6 79.3442,-90.6 79.3442,-90.6 79.3442,-84.6 85.3442,-78.6 91.3442,-78.6 91.3442,-78.6 134.9826,-78.6 134.9826,-78.6 140.9826,-78.6 146.9826,-84.6 146.9826,-90.6 146.9826,-90.6 146.9826,-102.6 146.9826,-102.6 146.9826,-108.6 140.9826,-114.6 134.9826,-114.6"></path>
<text text-anchor="middle" x="113.1634" y="-92.4" font-family="Times,serif" font-size="14.00" fill="#000000">IndexDB</text>
</g>
<!-- IndexDB&#45;&gt;Schema -->
<g id="edge27" class="edge">
<title>IndexDB-&gt;Schema</title>
<path fill="none" stroke="#000000" d="M142.3854,-78.444C157.6329,-68.9706 176.5556,-57.2137 193.327,-46.7934"></path>
<polygon fill="#000000" stroke="#000000" points="195.2235,-49.7357 201.8704,-41.4853 191.5293,-43.7899 195.2235,-49.7357"></polygon>
</g>
<!-- Files&#45;&gt;Offline -->
<g id="edge29" class="edge">
<title>Files-&gt;Offline</title>
<path fill="none" stroke="#000000" d="M286.3243,-237.3902C305.4673,-225.9595 330.5475,-210.9836 351.8071,-198.289"></path>
<polygon fill="#000000" stroke="#000000" points="353.8645,-201.137 360.656,-193.0052 350.2758,-195.1269 353.8645,-201.137"></polygon>
</g>
<!-- Publish -->
<g id="node19" class="node">
<title>Publish</title>
<path fill="#c0c0c0" stroke="#000000" d="M307.2034,-193.0019C307.2034,-193.0019 205.1234,-193.0019 205.1234,-193.0019 199.1234,-193.0019 193.1234,-187.0019 193.1234,-181.0019 193.1234,-181.0019 193.1234,-163.7981 193.1234,-163.7981 193.1234,-157.7981 199.1234,-151.7981 205.1234,-151.7981 205.1234,-151.7981 307.2034,-151.7981 307.2034,-151.7981 313.2034,-151.7981 319.2034,-157.7981 319.2034,-163.7981 319.2034,-163.7981 319.2034,-181.0019 319.2034,-181.0019 319.2034,-187.0019 313.2034,-193.0019 307.2034,-193.0019"></path>
<text text-anchor="middle" x="256.1634" y="-176.6" font-family="Times,serif" font-size="14.00" fill="#000000">(re)publish</text>
<text text-anchor="middle" x="256.1634" y="-159.8" font-family="Times,serif" font-size="14.00" fill="#000000">(to github or glitch)</text>
</g>
<!-- Files&#45;&gt;Publish -->
<g id="edge21" class="edge">
<title>Files-&gt;Publish</title>
<path fill="none" stroke="#000000" d="M256.1634,-237.3902C256.1634,-227.3884 256.1634,-214.6722 256.1634,-203.145"></path>
<polygon fill="#000000" stroke="#000000" points="259.6635,-203.0051 256.1634,-193.0052 252.6635,-203.0052 259.6635,-203.0051"></polygon>
</g>
<!-- choose -->
<g id="node22" class="node">
<title>choose</title>
<path fill="#c0c0c0" stroke="#000000" d="M163.5373,-190.4C163.5373,-190.4 132.7895,-190.4 132.7895,-190.4 126.7895,-190.4 120.7895,-184.4 120.7895,-178.4 120.7895,-178.4 120.7895,-166.4 120.7895,-166.4 120.7895,-160.4 126.7895,-154.4 132.7895,-154.4 132.7895,-154.4 163.5373,-154.4 163.5373,-154.4 169.5373,-154.4 175.5373,-160.4 175.5373,-166.4 175.5373,-166.4 175.5373,-178.4 175.5373,-178.4 175.5373,-184.4 169.5373,-190.4 163.5373,-190.4"></path>
<text text-anchor="middle" x="148.1634" y="-168.2" font-family="Times,serif" font-size="14.00" fill="#000000">choose</text>
</g>
<!-- Files&#45;&gt;choose -->
<g id="edge23" class="edge">
<title>Files-&gt;choose</title>
<path fill="none" stroke="#000000" d="M232.729,-237.3902C217.2679,-225.5081 196.8221,-209.7951 179.9076,-196.796"></path>
<polygon fill="#000000" stroke="#000000" points="181.9868,-193.9797 171.925,-190.6612 177.7212,-199.53 181.9868,-193.9797"></polygon>
</g>
<!-- Edit&#45;&gt;Files -->
<g id="edge10" class="edge">
<title>Edit-&gt;Files</title>
<path fill="none" stroke="#000000" d="M481.9643,-413.7439C443.1553,-384.5415 379.5065,-337.3165 323.1634,-298.6 313.7314,-292.1188 303.4025,-285.3174 293.7401,-279.0789"></path>
<polygon fill="#000000" stroke="#000000" points="295.4051,-275.9887 285.0987,-273.5333 291.6243,-281.8799 295.4051,-275.9887"></polygon>
<text text-anchor="middle" x="444.8682" y="-358.4" font-family="Times,serif" font-size="14.00" fill="#000000">create</text>
<text text-anchor="middle" x="444.8682" y="-341.6" font-family="Times,serif" font-size="14.00" fill="#000000">new</text>
</g>
<!-- EditCode&#45;&gt;Plugins -->
<g id="edge12" class="edge">
<title>EditCode-&gt;Plugins</title>
<path fill="none" stroke="#000000" d="M133.1634,-423.1735C133.1634,-412.2083 133.1634,-397.9089 133.1634,-385.1748"></path>
<polygon fill="#000000" stroke="#000000" points="136.6635,-384.954 133.1634,-374.954 129.6635,-384.9541 136.6635,-384.954"></polygon>
</g>
<!-- Plugins&#45;&gt;Files -->
<g id="edge13" class="edge">
<title>Plugins-&gt;Files</title>
<path fill="none" stroke="#000000" d="M158.9482,-333.4883C178.4756,-317.8028 205.3547,-296.2122 225.9009,-279.7084"></path>
<polygon fill="#000000" stroke="#000000" points="228.1117,-282.4219 233.7162,-273.4308 223.728,-276.9645 228.1117,-282.4219"></polygon>
</g>
<!-- Publish&#45;&gt;Schema -->
<g id="edge22" class="edge">
<title>Publish-&gt;Schema</title>
<path fill="none" stroke="#000000" d="M255.5915,-151.7953C254.8339,-132.716 253.0976,-103.6039 249.1634,-78.6 247.7562,-69.6564 245.6704,-60.0582 243.5361,-51.3032"></path>
<polygon fill="#000000" stroke="#000000" points="246.9008,-50.3328 241.0459,-41.5027 240.1164,-52.0566 246.9008,-50.3328"></polygon>
</g>
<!-- Cache&#45;&gt;Files -->
<g id="edge19" class="edge">
<title>Cache-&gt;Files</title>
<path fill="none" stroke="#000000" d="M232.5256,-333.2471C236.9277,-318.7497 242.8353,-299.2939 247.6433,-283.4594"></path>
<polygon fill="#000000" stroke="#000000" points="251.0607,-284.251 250.6172,-273.6654 244.3627,-282.2171 251.0607,-284.251"></polygon>
</g>
<!-- Schema&#45;&gt;PWA -->
<g id="edge28" class="edge">
<title>Schema-&gt;PWA</title>
<path fill="none" stroke="#000000" d="M270.4903,-23.8271C340.7178,-30.8228 491.1634,-51.1173 491.1634,-96.6 491.1634,-307 491.1634,-307 491.1634,-307 491.1634,-386.7821 443.8517,-471.3479 415.6557,-514.6619"></path>
<polygon fill="#000000" stroke="#000000" points="412.5625,-512.9935 409.953,-523.2619 418.3964,-516.862 412.5625,-512.9935"></polygon>
<text text-anchor="middle" x="519.3489" y="-268" font-family="Times,serif" font-size="14.00" fill="#000000">what does</text>
<text text-anchor="middle" x="519.3489" y="-251.2" font-family="Times,serif" font-size="14.00" fill="#000000">update</text>
<text text-anchor="middle" x="519.3489" y="-234.4" font-family="Times,serif" font-size="14.00" fill="#000000">look like?</text>
</g>
<!-- choose&#45;&gt;SWCache -->
<g id="edge24" class="edge">
<title>choose-&gt;SWCache</title>
<path fill="none" stroke="#000000" d="M161.2353,-154.0509C167.8682,-144.7403 176.0455,-133.2618 183.3426,-123.0189"></path>
<polygon fill="#000000" stroke="#000000" points="186.2602,-124.9555 189.2119,-114.7801 180.559,-120.8939 186.2602,-124.9555"></polygon>
</g>
<!-- choose&#45;&gt;IndexDB -->
<g id="edge25" class="edge">
<title>choose-&gt;IndexDB</title>
<path fill="none" stroke="#000000" d="M139.6909,-154.0509C135.5207,-145.0196 130.4088,-133.9486 125.7893,-123.944"></path>
<polygon fill="#000000" stroke="#000000" points="128.9277,-122.3917 121.5579,-114.7801 122.5724,-125.3262 128.9277,-122.3917"></polygon>
</g>
<!-- item -->
<g id="node23" class="node">
<title>item</title>
<path fill="#ffc0cb" stroke="#000000" d="M662.1634,-637.8C662.1634,-637.8 632.1634,-637.8 632.1634,-637.8 626.1634,-637.8 620.1634,-631.8 620.1634,-625.8 620.1634,-625.8 620.1634,-613.8 620.1634,-613.8 620.1634,-607.8 626.1634,-601.8 632.1634,-601.8 632.1634,-601.8 662.1634,-601.8 662.1634,-601.8 668.1634,-601.8 674.1634,-607.8 674.1634,-613.8 674.1634,-613.8 674.1634,-625.8 674.1634,-625.8 674.1634,-631.8 668.1634,-637.8 662.1634,-637.8"></path>
<text text-anchor="middle" x="647.1634" y="-615.6" font-family="Times,serif" font-size="14.00" fill="#000000">item</text>
</g>
<!-- text -->
<g id="node24" class="node">
<title>text</title>
<path fill="#ffc0cb" stroke="#000000" d="M662.1634,-562C662.1634,-562 632.1634,-562 632.1634,-562 626.1634,-562 620.1634,-556 620.1634,-550 620.1634,-550 620.1634,-538 620.1634,-538 620.1634,-532 626.1634,-526 632.1634,-526 632.1634,-526 662.1634,-526 662.1634,-526 668.1634,-526 674.1634,-532 674.1634,-538 674.1634,-538 674.1634,-550 674.1634,-550 674.1634,-556 668.1634,-562 662.1634,-562"></path>
<text text-anchor="middle" x="647.1634" y="-539.8" font-family="Times,serif" font-size="14.00" fill="#000000">text</text>
</g>
<!-- item&#45;&gt;text -->
<g id="edge6" class="edge">
<title>item-&gt;text</title>
<path fill="none" stroke="#000000" d="M647.1634,-601.4509C647.1634,-592.6989 647.1634,-582.0314 647.1634,-572.2752"></path>
<polygon fill="#000000" stroke="#000000" points="650.6635,-572.1801 647.1634,-562.1801 643.6635,-572.1801 650.6635,-572.1801"></polygon>
</g>
<!-- charms -->
<g id="node25" class="node">
<title>charms</title>
<path fill="#ffc0cb" stroke="#000000" d="M586.59,-562C586.59,-562 553.7368,-562 553.7368,-562 547.7368,-562 541.7368,-556 541.7368,-550 541.7368,-550 541.7368,-538 541.7368,-538 541.7368,-532 547.7368,-526 553.7368,-526 553.7368,-526 586.59,-526 586.59,-526 592.59,-526 598.59,-532 598.59,-538 598.59,-538 598.59,-550 598.59,-550 598.59,-556 592.59,-562 586.59,-562"></path>
<text text-anchor="middle" x="570.1634" y="-539.8" font-family="Times,serif" font-size="14.00" fill="#000000">charms</text>
</g>
<!-- item&#45;&gt;charms -->
<g id="edge7" class="edge">
<title>item-&gt;charms</title>
<path fill="none" stroke="#000000" d="M628.5238,-601.4509C618.6875,-591.7678 606.4693,-579.7401 595.7582,-569.1959"></path>
<polygon fill="#000000" stroke="#000000" points="598.2131,-566.7012 588.6313,-562.1801 593.3023,-571.6897 598.2131,-566.7012"></polygon>
</g>
<!-- text&#45;&gt;Edit -->
<g id="edge8" class="edge">
<title>text-&gt;Edit</title>
<path fill="none" stroke="#000000" d="M624.3977,-525.8581C607.3486,-512.2716 583.4817,-493.2521 562.688,-476.6816"></path>
<polygon fill="#000000" stroke="#000000" points="564.5947,-473.7256 554.5929,-470.2306 560.2321,-479.2 564.5947,-473.7256"></polygon>
</g>
<!-- charms&#45;&gt;Edit -->
<g id="edge9" class="edge">
<title>charms-&gt;Edit</title>
<path fill="none" stroke="#000000" d="M560.8668,-525.6214C554.4199,-512.8763 545.5969,-495.4339 537.6438,-479.7113"></path>
<polygon fill="#000000" stroke="#000000" points="540.7233,-478.0449 533.0863,-470.7014 534.4769,-481.2046 540.7233,-478.0449"></polygon>
</g>
</g>
</g></svg>
