<svg width="616pt" height="679pt" xmlns="http://www.w3.org/2000/svg" xmlns:xlink="http://www.w3.org/1999/xlink" xmlns:ev="http://www.w3.org/2001/xml-events" style="overflow: hidden; "><g id="viewport-20230808021323354" class="svg-pan-zoom_viewport" transform="matrix(0.8323017954826355,0,0,0.8323017954826355,128.9970703125,70.5999984741211)" style="transform: matrix(0.832302, 0, 0, 0.832302, 128.997, 70.6);">
<g id="graph0" class="graph" transform="scale(1 1) rotate(0) translate(4 674.6)">
<title>%0</title>
<polygon fill="#ffffff" stroke="transparent" points="-4,4 -4,-674.6 612.3724,-674.6 612.3724,4 -4,4"></polygon>
<g id="clust5" class="cluster">
<title>cluster_1</title>
<polygon fill="none" stroke="#000000" points="105.8254,-610.6 105.8254,-662.6 499.8254,-662.6 499.8254,-610.6 105.8254,-610.6"></polygon>
</g>
<!-- Achieved -->
<g id="node1" class="node">
<title>Achieved</title>
<path fill="#98fb98" stroke="#000000" d="M171.4673,-654.6C171.4673,-654.6 126.1835,-654.6 126.1835,-654.6 120.1835,-654.6 114.1835,-648.6 114.1835,-642.6 114.1835,-642.6 114.1835,-630.6 114.1835,-630.6 114.1835,-624.6 120.1835,-618.6 126.1835,-618.6 126.1835,-618.6 171.4673,-618.6 171.4673,-618.6 177.4673,-618.6 183.4673,-624.6 183.4673,-630.6 183.4673,-630.6 183.4673,-642.6 183.4673,-642.6 183.4673,-648.6 177.4673,-654.6 171.4673,-654.6"></path>
<text text-anchor="middle" x="148.8254" y="-632.4" font-family="Times,serif" font-size="14.00" fill="#000000">Achieved</text>
</g>
<!-- PWA -->
<g id="node2" class="node">
<title>PWA</title>
<path fill="#98fb98" stroke="#000000" d="M406.7862,-581.4019C406.7862,-581.4019 316.8646,-581.4019 316.8646,-581.4019 310.8646,-581.4019 304.8646,-575.4019 304.8646,-569.4019 304.8646,-569.4019 304.8646,-552.1981 304.8646,-552.1981 304.8646,-546.1981 310.8646,-540.1981 316.8646,-540.1981 316.8646,-540.1981 406.7862,-540.1981 406.7862,-540.1981 412.7862,-540.1981 418.7862,-546.1981 418.7862,-552.1981 418.7862,-552.1981 418.7862,-569.4019 418.7862,-569.4019 418.7862,-575.4019 412.7862,-581.4019 406.7862,-581.4019"></path>
<text text-anchor="middle" x="361.8254" y="-565" font-family="Times,serif" font-size="14.00" fill="#000000">Progressive</text>
<text text-anchor="middle" x="361.8254" y="-548.2" font-family="Times,serif" font-size="14.00" fill="#000000">Web App (PWA)</text>
</g>
<!-- Achieved&#45;&gt;PWA -->
<!-- item -->
<g id="node12" class="node">
<title>item</title>
<path fill="#ffc0cb" stroke="#000000" d="M251.8254,-578.8C251.8254,-578.8 221.8254,-578.8 221.8254,-578.8 215.8254,-578.8 209.8254,-572.8 209.8254,-566.8 209.8254,-566.8 209.8254,-554.8 209.8254,-554.8 209.8254,-548.8 215.8254,-542.8 221.8254,-542.8 221.8254,-542.8 251.8254,-542.8 251.8254,-542.8 257.8254,-542.8 263.8254,-548.8 263.8254,-554.8 263.8254,-554.8 263.8254,-566.8 263.8254,-566.8 263.8254,-572.8 257.8254,-578.8 251.8254,-578.8"></path>
<text text-anchor="middle" x="236.8254" y="-556.6" font-family="Times,serif" font-size="14.00" fill="#000000">item</text>
</g>
<!-- Achieved&#45;&gt;item -->
<!-- SW -->
<g id="node3" class="node">
<title>SW</title>
<path fill="#98fb98" stroke="#000000" d="M436.0763,-487.0019C436.0763,-487.0019 401.5745,-487.0019 401.5745,-487.0019 395.5745,-487.0019 389.5745,-481.0019 389.5745,-475.0019 389.5745,-475.0019 389.5745,-457.7981 389.5745,-457.7981 389.5745,-451.7981 395.5745,-445.7981 401.5745,-445.7981 401.5745,-445.7981 436.0763,-445.7981 436.0763,-445.7981 442.0763,-445.7981 448.0763,-451.7981 448.0763,-457.7981 448.0763,-457.7981 448.0763,-475.0019 448.0763,-475.0019 448.0763,-481.0019 442.0763,-487.0019 436.0763,-487.0019"></path>
<text text-anchor="middle" x="418.8254" y="-470.6" font-family="Times,serif" font-size="14.00" fill="#000000">Service</text>
<text text-anchor="middle" x="418.8254" y="-453.8" font-family="Times,serif" font-size="14.00" fill="#000000">Worker</text>
</g>
<!-- PWA&#45;&gt;SW -->
<g id="edge38" class="edge">
<title>PWA-&gt;SW</title>
<path fill="none" stroke="#000000" d="M374.4755,-539.8496C382.2241,-527.0169 392.2646,-510.3884 400.8321,-496.1994"></path>
<polygon fill="#000000" stroke="#000000" points="404.0378,-497.6615 406.2106,-487.2919 398.0454,-494.0432 404.0378,-497.6615"></polygon>
</g>
<!-- Edit -->
<g id="node17" class="node">
<title>Edit</title>
<path fill="#d3d3d3" stroke="#000000" d="M293.1974,-408.8014C293.1974,-408.8014 244.4534,-408.8014 244.4534,-408.8014 238.4534,-408.8014 232.4534,-402.8014 232.4534,-396.8014 232.4534,-396.8014 232.4534,-361.9986 232.4534,-361.9986 232.4534,-355.9986 238.4534,-349.9986 244.4534,-349.9986 244.4534,-349.9986 293.1974,-349.9986 293.1974,-349.9986 299.1974,-349.9986 305.1974,-355.9986 305.1974,-361.9986 305.1974,-361.9986 305.1974,-396.8014 305.1974,-396.8014 305.1974,-402.8014 299.1974,-408.8014 293.1974,-408.8014"></path>
<text text-anchor="middle" x="268.8254" y="-392" font-family="Times,serif" font-size="14.00" fill="#000000">editor and</text>
<text text-anchor="middle" x="268.8254" y="-375.2" font-family="Times,serif" font-size="14.00" fill="#000000">download</text>
<text text-anchor="middle" x="268.8254" y="-358.4" font-family="Times,serif" font-size="14.00" fill="#000000">pages</text>
</g>
<!-- PWA&#45;&gt;Edit -->
<g id="edge13" class="edge">
<title>PWA-&gt;Edit</title>
<path fill="none" stroke="#000000" d="M351.7685,-539.867C340.5633,-516.689 321.7874,-478.2787 304.8254,-445.6 300.1243,-436.543 294.9459,-426.8595 290.0175,-417.772"></path>
<polygon fill="#000000" stroke="#000000" points="293.0571,-416.0353 285.1993,-408.9285 286.9102,-419.3843 293.0571,-416.0353"></polygon>
</g>
<!-- Sitemap -->
<g id="node18" class="node">
<title>Sitemap</title>
<path fill="#d3d3d3" stroke="#000000" d="M137.9665,-487.0019C137.9665,-487.0019 81.6843,-487.0019 81.6843,-487.0019 75.6843,-487.0019 69.6843,-481.0019 69.6843,-475.0019 69.6843,-475.0019 69.6843,-457.7981 69.6843,-457.7981 69.6843,-451.7981 75.6843,-445.7981 81.6843,-445.7981 81.6843,-445.7981 137.9665,-445.7981 137.9665,-445.7981 143.9665,-445.7981 149.9665,-451.7981 149.9665,-457.7981 149.9665,-457.7981 149.9665,-475.0019 149.9665,-475.0019 149.9665,-481.0019 143.9665,-487.0019 137.9665,-487.0019"></path>
<text text-anchor="middle" x="109.8254" y="-470.6" font-family="Times,serif" font-size="14.00" fill="#000000">browse one</text>
<text text-anchor="middle" x="109.8254" y="-453.8" font-family="Times,serif" font-size="14.00" fill="#000000">sitemap</text>
</g>
<!-- PWA&#45;&gt;Sitemap -->
<g id="edge24" class="edge">
<title>PWA-&gt;Sitemap</title>
<path fill="none" stroke="#000000" d="M304.6427,-540.9895C266.0346,-527.4023 213.7622,-508.5982 159.5564,-487.4121"></path>
<polygon fill="#000000" stroke="#000000" points="160.7191,-484.1085 150.1317,-483.7118 158.1608,-490.6243 160.7191,-484.1085"></polygon>
</g>
<!-- EditCode -->
<g id="node22" class="node">
<title>EditCode</title>
<path fill="#d3d3d3" stroke="#000000" d="M532.9121,-484.4C532.9121,-484.4 478.7387,-484.4 478.7387,-484.4 472.7387,-484.4 466.7387,-478.4 466.7387,-472.4 466.7387,-472.4 466.7387,-460.4 466.7387,-460.4 466.7387,-454.4 472.7387,-448.4 478.7387,-448.4 478.7387,-448.4 532.9121,-448.4 532.9121,-448.4 538.9121,-448.4 544.9121,-454.4 544.9121,-460.4 544.9121,-460.4 544.9121,-472.4 544.9121,-472.4 544.9121,-478.4 538.9121,-484.4 532.9121,-484.4"></path>
<text text-anchor="middle" x="505.8254" y="-462.2" font-family="Times,serif" font-size="14.00" fill="#000000">code editor</text>
</g>
<!-- PWA&#45;&gt;EditCode -->
<g id="edge19" class="edge">
<title>PWA-&gt;EditCode</title>
<path fill="none" stroke="#000000" d="M393.4268,-540.0835C415.8909,-525.3571 446.1123,-505.5453 469.56,-490.174"></path>
<polygon fill="#000000" stroke="#000000" points="471.7403,-492.9297 478.1846,-484.5201 467.9025,-487.0755 471.7403,-492.9297"></polygon>
</g>
<!-- Offline -->
<g id="node4" class="node">
<title>Offline</title>
<path fill="#98fb98" stroke="#000000" d="M494.1358,-193.0019C494.1358,-193.0019 401.515,-193.0019 401.515,-193.0019 395.515,-193.0019 389.515,-187.0019 389.515,-181.0019 389.515,-181.0019 389.515,-163.7981 389.515,-163.7981 389.515,-157.7981 395.515,-151.7981 401.515,-151.7981 401.515,-151.7981 494.1358,-151.7981 494.1358,-151.7981 500.1358,-151.7981 506.1358,-157.7981 506.1358,-163.7981 506.1358,-163.7981 506.1358,-181.0019 506.1358,-181.0019 506.1358,-187.0019 500.1358,-193.0019 494.1358,-193.0019"></path>
<text text-anchor="middle" x="447.8254" y="-176.6" font-family="Times,serif" font-size="14.00" fill="#000000">offline mode with</text>
<text text-anchor="middle" x="447.8254" y="-159.8" font-family="Times,serif" font-size="14.00" fill="#000000">known files</text>
</g>
<!-- SW&#45;&gt;Offline -->
<g id="edge39" class="edge">
<title>SW-&gt;Offline</title>
<path fill="none" stroke="#000000" d="M420.8646,-445.7265C425.8877,-394.8031 438.8777,-263.1111 444.8012,-203.0596"></path>
<polygon fill="#000000" stroke="#000000" points="448.2898,-203.346 445.7884,-193.0507 441.3236,-202.6588 448.2898,-203.346"></polygon>
</g>
<!-- Wiki -->
<g id="node5" class="node">
<title>Wiki</title>
<path fill="#add8e6" stroke="#000000" d="M243.8254,-654.6C243.8254,-654.6 213.8254,-654.6 213.8254,-654.6 207.8254,-654.6 201.8254,-648.6 201.8254,-642.6 201.8254,-642.6 201.8254,-630.6 201.8254,-630.6 201.8254,-624.6 207.8254,-618.6 213.8254,-618.6 213.8254,-618.6 243.8254,-618.6 243.8254,-618.6 249.8254,-618.6 255.8254,-624.6 255.8254,-630.6 255.8254,-630.6 255.8254,-642.6 255.8254,-642.6 255.8254,-648.6 249.8254,-654.6 243.8254,-654.6"></path>
<text text-anchor="middle" x="228.8254" y="-632.4" font-family="Times,serif" font-size="14.00" fill="#000000">Wiki</text>
</g>
<!-- Wiki&#45;&gt;PWA -->
<!-- Wiki&#45;&gt;item -->
<!-- Site -->
<g id="node6" class="node">
<title>Site</title>
<path fill="#add8e6" stroke="#000000" d="M71.4769,-578.8C71.4769,-578.8 12.1739,-578.8 12.1739,-578.8 6.1739,-578.8 .1739,-572.8 .1739,-566.8 .1739,-566.8 .1739,-554.8 .1739,-554.8 .1739,-548.8 6.1739,-542.8 12.1739,-542.8 12.1739,-542.8 71.4769,-542.8 71.4769,-542.8 77.4769,-542.8 83.4769,-548.8 83.4769,-554.8 83.4769,-554.8 83.4769,-566.8 83.4769,-566.8 83.4769,-572.8 77.4769,-578.8 71.4769,-578.8"></path>
<text text-anchor="middle" x="41.8254" y="-556.6" font-family="Times,serif" font-size="14.00" fill="#000000">SiteAdaptor</text>
</g>
<!-- Site&#45;&gt;Sitemap -->
<g id="edge11" class="edge">
<title>Site-&gt;Sitemap</title>
<path fill="none" stroke="#000000" d="M54.9365,-542.5987C64.5753,-529.2178 77.871,-510.7603 88.9625,-495.3626"></path>
<polygon fill="#000000" stroke="#000000" points="91.8555,-497.3347 94.8604,-487.1749 86.1756,-493.2432 91.8555,-497.3347"></polygon>
<text text-anchor="middle" x="102.5989" y="-509.4" font-family="Times,serif" font-size="14.00" fill="#000000">informs</text>
</g>
<!-- Cache -->
<g id="node21" class="node">
<title>Cache</title>
<path fill="#d3d3d3" stroke="#000000" d="M118.6806,-400.0019C118.6806,-400.0019 76.9702,-400.0019 76.9702,-400.0019 70.9702,-400.0019 64.9702,-394.0019 64.9702,-388.0019 64.9702,-388.0019 64.9702,-370.7981 64.9702,-370.7981 64.9702,-364.7981 70.9702,-358.7981 76.9702,-358.7981 76.9702,-358.7981 118.6806,-358.7981 118.6806,-358.7981 124.6806,-358.7981 130.6806,-364.7981 130.6806,-370.7981 130.6806,-370.7981 130.6806,-388.0019 130.6806,-388.0019 130.6806,-394.0019 124.6806,-400.0019 118.6806,-400.0019"></path>
<text text-anchor="middle" x="97.8254" y="-383.6" font-family="Times,serif" font-size="14.00" fill="#000000">cache all</text>
<text text-anchor="middle" x="97.8254" y="-366.8" font-family="Times,serif" font-size="14.00" fill="#000000">pages</text>
</g>
<!-- Site&#45;&gt;Cache -->
<g id="edge12" class="edge">
<title>Site-&gt;Cache</title>
<path fill="none" stroke="#000000" d="M30.9913,-542.4104C18.688,-518.9503 2.1644,-477.5856 17.2784,-445.6 25.6303,-427.9251 41.2709,-413.3812 56.5639,-402.4723"></path>
<polygon fill="#000000" stroke="#000000" points="58.6491,-405.2874 64.9758,-396.7889 54.7303,-399.4872 58.6491,-405.2874"></polygon>
<text text-anchor="middle" x="39.5989" y="-462.2" font-family="Times,serif" font-size="14.00" fill="#000000">informs</text>
</g>
<!-- Frame -->
<g id="node7" class="node">
<title>Frame</title>
<path fill="#add8e6" stroke="#000000" d="M583.1528,-578.8C583.1528,-578.8 518.498,-578.8 518.498,-578.8 512.498,-578.8 506.498,-572.8 506.498,-566.8 506.498,-566.8 506.498,-554.8 506.498,-554.8 506.498,-548.8 512.498,-542.8 518.498,-542.8 518.498,-542.8 583.1528,-542.8 583.1528,-542.8 589.1528,-542.8 595.1528,-548.8 595.1528,-554.8 595.1528,-554.8 595.1528,-566.8 595.1528,-566.8 595.1528,-572.8 589.1528,-578.8 583.1528,-578.8"></path>
<text text-anchor="middle" x="550.8254" y="-556.6" font-family="Times,serif" font-size="14.00" fill="#000000">FramePlugin</text>
</g>
<!-- Frame&#45;&gt;EditCode -->
<g id="edge22" class="edge">
<title>Frame-&gt;EditCode</title>
<path fill="none" stroke="#000000" d="M536.1269,-542.6011C531.5601,-536.3358 526.8047,-529.1036 523.2784,-522 518.964,-513.3089 515.4327,-503.3263 512.7033,-494.2397"></path>
<polygon fill="#000000" stroke="#000000" points="516.0356,-493.16 509.9634,-484.4778 509.296,-495.0516 516.0356,-493.16"></polygon>
<text text-anchor="middle" x="544.5989" y="-509.4" font-family="Times,serif" font-size="14.00" fill="#000000">informs</text>
</g>
<!-- Plugins -->
<g id="node23" class="node">
<title>Plugins</title>
<path fill="#d3d3d3" stroke="#000000" d="M533.5319,-400.0019C533.5319,-400.0019 486.1189,-400.0019 486.1189,-400.0019 480.1189,-400.0019 474.1189,-394.0019 474.1189,-388.0019 474.1189,-388.0019 474.1189,-370.7981 474.1189,-370.7981 474.1189,-364.7981 480.1189,-358.7981 486.1189,-358.7981 486.1189,-358.7981 533.5319,-358.7981 533.5319,-358.7981 539.5319,-358.7981 545.5319,-364.7981 545.5319,-370.7981 545.5319,-370.7981 545.5319,-388.0019 545.5319,-388.0019 545.5319,-394.0019 539.5319,-400.0019 533.5319,-400.0019"></path>
<text text-anchor="middle" x="509.8254" y="-383.6" font-family="Times,serif" font-size="14.00" fill="#000000">plugins</text>
<text text-anchor="middle" x="509.8254" y="-366.8" font-family="Times,serif" font-size="14.00" fill="#000000">collection</text>
</g>
<!-- Frame&#45;&gt;Plugins -->
<g id="edge23" class="edge">
<title>Frame-&gt;Plugins</title>
<path fill="none" stroke="#000000" d="M560.0008,-542.7091C562.7679,-536.3322 565.4378,-529.0045 566.8254,-522 568.2763,-514.6757 567.6256,-512.6237 566.8254,-505.2 563.9198,-478.2445 564.4002,-470.5643 553.8254,-445.6 548.3464,-432.6656 540.2682,-419.551 532.524,-408.4444"></path>
<polygon fill="#000000" stroke="#000000" points="535.129,-406.0729 526.4409,-400.0094 529.4515,-410.1675 535.129,-406.0729"></polygon>
<text text-anchor="middle" x="586.5989" y="-462.2" font-family="Times,serif" font-size="14.00" fill="#000000">informs</text>
</g>
<!-- Tool -->
<g id="node8" class="node">
<title>Tool</title>
<path fill="#ffe4c4" stroke="#000000" d="M315.8254,-654.6C315.8254,-654.6 285.8254,-654.6 285.8254,-654.6 279.8254,-654.6 273.8254,-648.6 273.8254,-642.6 273.8254,-642.6 273.8254,-630.6 273.8254,-630.6 273.8254,-624.6 279.8254,-618.6 285.8254,-618.6 285.8254,-618.6 315.8254,-618.6 315.8254,-618.6 321.8254,-618.6 327.8254,-624.6 327.8254,-630.6 327.8254,-630.6 327.8254,-642.6 327.8254,-642.6 327.8254,-648.6 321.8254,-654.6 315.8254,-654.6"></path>
<text text-anchor="middle" x="300.8254" y="-632.4" font-family="Times,serif" font-size="14.00" fill="#000000">Tool</text>
</g>
<!-- Tool&#45;&gt;PWA -->
<!-- Tool&#45;&gt;item -->
<!-- SWCache -->
<g id="node9" class="node">
<title>SWCache</title>
<path fill="#ffe4c4" stroke="#000000" d="M242.8045,-114.6C242.8045,-114.6 190.8463,-114.6 190.8463,-114.6 184.8463,-114.6 178.8463,-108.6 178.8463,-102.6 178.8463,-102.6 178.8463,-90.6 178.8463,-90.6 178.8463,-84.6 184.8463,-78.6 190.8463,-78.6 190.8463,-78.6 242.8045,-78.6 242.8045,-78.6 248.8045,-78.6 254.8045,-84.6 254.8045,-90.6 254.8045,-90.6 254.8045,-102.6 254.8045,-102.6 254.8045,-108.6 248.8045,-114.6 242.8045,-114.6"></path>
<text text-anchor="middle" x="216.8254" y="-92.4" font-family="Times,serif" font-size="14.00" fill="#000000">SW Cache</text>
</g>
<!-- Schema -->
<g id="node24" class="node">
<title>Schema</title>
<path fill="#d3d3d3" stroke="#000000" d="M273.2644,-41.4019C273.2644,-41.4019 226.3864,-41.4019 226.3864,-41.4019 220.3864,-41.4019 214.3864,-35.4019 214.3864,-29.4019 214.3864,-29.4019 214.3864,-12.1981 214.3864,-12.1981 214.3864,-6.1981 220.3864,-.1981 226.3864,-.1981 226.3864,-.1981 273.2644,-.1981 273.2644,-.1981 279.2644,-.1981 285.2644,-6.1981 285.2644,-12.1981 285.2644,-12.1981 285.2644,-29.4019 285.2644,-29.4019 285.2644,-35.4019 279.2644,-41.4019 273.2644,-41.4019"></path>
<text text-anchor="middle" x="249.8254" y="-25" font-family="Times,serif" font-size="14.00" fill="#000000">schema</text>
<text text-anchor="middle" x="249.8254" y="-8.2" font-family="Times,serif" font-size="14.00" fill="#000000">migration</text>
</g>
<!-- SWCache&#45;&gt;Schema -->
<g id="edge34" class="edge">
<title>SWCache-&gt;Schema</title>
<path fill="none" stroke="#000000" d="M224.8138,-78.2509C228.3814,-70.0562 232.6801,-60.1821 236.6998,-50.9492"></path>
<polygon fill="#000000" stroke="#000000" points="239.9626,-52.2227 240.7452,-41.6568 233.5444,-49.4285 239.9626,-52.2227"></polygon>
</g>
<!-- IndexDB -->
<g id="node10" class="node">
<title>IndexDB</title>
<path fill="#ffe4c4" stroke="#000000" d="M149.6446,-114.6C149.6446,-114.6 106.0062,-114.6 106.0062,-114.6 100.0062,-114.6 94.0062,-108.6 94.0062,-102.6 94.0062,-102.6 94.0062,-90.6 94.0062,-90.6 94.0062,-84.6 100.0062,-78.6 106.0062,-78.6 106.0062,-78.6 149.6446,-78.6 149.6446,-78.6 155.6446,-78.6 161.6446,-84.6 161.6446,-90.6 161.6446,-90.6 161.6446,-102.6 161.6446,-102.6 161.6446,-108.6 155.6446,-114.6 149.6446,-114.6"></path>
<text text-anchor="middle" x="127.8254" y="-92.4" font-family="Times,serif" font-size="14.00" fill="#000000">IndexDB</text>
</g>
<!-- IndexDB&#45;&gt;Schema -->
<g id="edge35" class="edge">
<title>IndexDB-&gt;Schema</title>
<path fill="none" stroke="#000000" d="M157.0474,-78.444C172.2949,-68.9706 191.2176,-57.2137 207.989,-46.7934"></path>
<polygon fill="#000000" stroke="#000000" points="209.8855,-49.7357 216.5324,-41.4853 206.1913,-43.7899 209.8855,-49.7357"></polygon>
</g>
<!-- Parts -->
<g id="node11" class="node">
<title>Parts</title>
<path fill="#ffc0cb" stroke="#000000" d="M387.8254,-654.6C387.8254,-654.6 357.8254,-654.6 357.8254,-654.6 351.8254,-654.6 345.8254,-648.6 345.8254,-642.6 345.8254,-642.6 345.8254,-630.6 345.8254,-630.6 345.8254,-624.6 351.8254,-618.6 357.8254,-618.6 357.8254,-618.6 387.8254,-618.6 387.8254,-618.6 393.8254,-618.6 399.8254,-624.6 399.8254,-630.6 399.8254,-630.6 399.8254,-642.6 399.8254,-642.6 399.8254,-648.6 393.8254,-654.6 387.8254,-654.6"></path>
<text text-anchor="middle" x="372.8254" y="-632.4" font-family="Times,serif" font-size="14.00" fill="#000000">Parts</text>
</g>
<!-- Parts&#45;&gt;PWA -->
<!-- Parts&#45;&gt;item -->
<!-- text -->
<g id="node13" class="node">
<title>text</title>
<path fill="#ffc0cb" stroke="#000000" d="M209.8254,-484.4C209.8254,-484.4 179.8254,-484.4 179.8254,-484.4 173.8254,-484.4 167.8254,-478.4 167.8254,-472.4 167.8254,-472.4 167.8254,-460.4 167.8254,-460.4 167.8254,-454.4 173.8254,-448.4 179.8254,-448.4 179.8254,-448.4 209.8254,-448.4 209.8254,-448.4 215.8254,-448.4 221.8254,-454.4 221.8254,-460.4 221.8254,-460.4 221.8254,-472.4 221.8254,-472.4 221.8254,-478.4 215.8254,-484.4 209.8254,-484.4"></path>
<text text-anchor="middle" x="194.8254" y="-462.2" font-family="Times,serif" font-size="14.00" fill="#000000">text</text>
</g>
<!-- item&#45;&gt;text -->
<g id="edge14" class="edge">
<title>item-&gt;text</title>
<path fill="none" stroke="#000000" d="M228.7274,-542.5987C222.5684,-528.7557 213.9921,-509.4794 207.0066,-493.7787"></path>
<polygon fill="#000000" stroke="#000000" points="210.1614,-492.2592 202.8986,-484.5454 203.7658,-495.1047 210.1614,-492.2592"></polygon>
</g>
<!-- charms -->
<g id="node14" class="node">
<title>charms</title>
<path fill="#ffc0cb" stroke="#000000" d="M284.252,-484.4C284.252,-484.4 251.3988,-484.4 251.3988,-484.4 245.3988,-484.4 239.3988,-478.4 239.3988,-472.4 239.3988,-472.4 239.3988,-460.4 239.3988,-460.4 239.3988,-454.4 245.3988,-448.4 251.3988,-448.4 251.3988,-448.4 284.252,-448.4 284.252,-448.4 290.252,-448.4 296.252,-454.4 296.252,-460.4 296.252,-460.4 296.252,-472.4 296.252,-472.4 296.252,-478.4 290.252,-484.4 284.252,-484.4"></path>
<text text-anchor="middle" x="267.8254" y="-462.2" font-family="Times,serif" font-size="14.00" fill="#000000">charms</text>
</g>
<!-- item&#45;&gt;charms -->
<g id="edge15" class="edge">
<title>item-&gt;charms</title>
<path fill="none" stroke="#000000" d="M242.8025,-542.5987C247.3055,-528.8863 253.5593,-509.8426 258.6883,-494.224"></path>
<polygon fill="#000000" stroke="#000000" points="262.0719,-495.1382 261.8666,-484.5454 255.4213,-492.9542 262.0719,-495.1382"></polygon>
</g>
<!-- text&#45;&gt;Edit -->
<g id="edge16" class="edge">
<title>text-&gt;Edit</title>
<path fill="none" stroke="#000000" d="M210.1582,-448.3735C217.9934,-439.162 227.8299,-427.5974 237.1972,-416.5845"></path>
<polygon fill="#000000" stroke="#000000" points="240.0867,-418.5895 243.8997,-408.7045 234.7546,-414.0541 240.0867,-418.5895"></polygon>
</g>
<!-- charms&#45;&gt;Edit -->
<g id="edge17" class="edge">
<title>charms-&gt;Edit</title>
<path fill="none" stroke="#000000" d="M268.0326,-448.3735C268.1313,-439.788 268.2535,-429.1584 268.3721,-418.8366"></path>
<polygon fill="#000000" stroke="#000000" points="271.8733,-418.7441 268.4886,-408.7045 264.8738,-418.6636 271.8733,-418.7441"></polygon>
</g>
<!-- Anticipate -->
<g id="node15" class="node">
<title>Anticipate</title>
<path fill="#d3d3d3" stroke="#000000" d="M480.1389,-654.6C480.1389,-654.6 429.5119,-654.6 429.5119,-654.6 423.5119,-654.6 417.5119,-648.6 417.5119,-642.6 417.5119,-642.6 417.5119,-630.6 417.5119,-630.6 417.5119,-624.6 423.5119,-618.6 429.5119,-618.6 429.5119,-618.6 480.1389,-618.6 480.1389,-618.6 486.1389,-618.6 492.1389,-624.6 492.1389,-630.6 492.1389,-630.6 492.1389,-642.6 492.1389,-642.6 492.1389,-648.6 486.1389,-654.6 480.1389,-654.6"></path>
<text text-anchor="middle" x="454.8254" y="-632.4" font-family="Times,serif" font-size="14.00" fill="#000000">Anticipate</text>
</g>
<!-- Anticipate&#45;&gt;PWA -->
<!-- Anticipate&#45;&gt;item -->
<!-- Files -->
<g id="node16" class="node">
<title>Files</title>
<path fill="#d3d3d3" stroke="#000000" d="M297.5335,-273.4C297.5335,-273.4 240.1173,-273.4 240.1173,-273.4 234.1173,-273.4 228.1173,-267.4 228.1173,-261.4 228.1173,-261.4 228.1173,-249.4 228.1173,-249.4 228.1173,-243.4 234.1173,-237.4 240.1173,-237.4 240.1173,-237.4 297.5335,-237.4 297.5335,-237.4 303.5335,-237.4 309.5335,-243.4 309.5335,-249.4 309.5335,-249.4 309.5335,-261.4 309.5335,-261.4 309.5335,-267.4 303.5335,-273.4 297.5335,-273.4"></path>
<text text-anchor="middle" x="268.8254" y="-251.2" font-family="Times,serif" font-size="14.00" fill="#000000">known files</text>
</g>
<!-- Files&#45;&gt;Offline -->
<g id="edge37" class="edge">
<title>Files-&gt;Offline</title>
<path fill="none" stroke="#000000" d="M307.6657,-237.3902C332.9778,-225.6533 366.3507,-210.1788 394.1816,-197.2739"></path>
<polygon fill="#000000" stroke="#000000" points="395.7879,-200.3871 403.3878,-193.0052 392.8433,-194.0366 395.7879,-200.3871"></polygon>
</g>
<!-- Publish -->
<g id="node20" class="node">
<title>Publish</title>
<path fill="#d3d3d3" stroke="#000000" d="M321.8654,-193.0019C321.8654,-193.0019 219.7854,-193.0019 219.7854,-193.0019 213.7854,-193.0019 207.7854,-187.0019 207.7854,-181.0019 207.7854,-181.0019 207.7854,-163.7981 207.7854,-163.7981 207.7854,-157.7981 213.7854,-151.7981 219.7854,-151.7981 219.7854,-151.7981 321.8654,-151.7981 321.8654,-151.7981 327.8654,-151.7981 333.8654,-157.7981 333.8654,-163.7981 333.8654,-163.7981 333.8654,-181.0019 333.8654,-181.0019 333.8654,-187.0019 327.8654,-193.0019 321.8654,-193.0019"></path>
<text text-anchor="middle" x="270.8254" y="-176.6" font-family="Times,serif" font-size="14.00" fill="#000000">(re)publish</text>
<text text-anchor="middle" x="270.8254" y="-159.8" font-family="Times,serif" font-size="14.00" fill="#000000">(to github or glitch)</text>
</g>
<!-- Files&#45;&gt;Publish -->
<g id="edge29" class="edge">
<title>Files-&gt;Publish</title>
<path fill="none" stroke="#000000" d="M269.2594,-237.3902C269.5004,-227.3884 269.8068,-214.6722 270.0846,-203.145"></path>
<polygon fill="#000000" stroke="#000000" points="273.5869,-203.0866 270.3289,-193.0052 266.5889,-202.9179 273.5869,-203.0866"></polygon>
</g>
<!-- choose -->
<g id="node25" class="node">
<title>choose</title>
<path fill="#d3d3d3" stroke="#000000" d="M178.1993,-190.4C178.1993,-190.4 147.4515,-190.4 147.4515,-190.4 141.4515,-190.4 135.4515,-184.4 135.4515,-178.4 135.4515,-178.4 135.4515,-166.4 135.4515,-166.4 135.4515,-160.4 141.4515,-154.4 147.4515,-154.4 147.4515,-154.4 178.1993,-154.4 178.1993,-154.4 184.1993,-154.4 190.1993,-160.4 190.1993,-166.4 190.1993,-166.4 190.1993,-178.4 190.1993,-178.4 190.1993,-184.4 184.1993,-190.4 178.1993,-190.4"></path>
<text text-anchor="middle" x="162.8254" y="-168.2" font-family="Times,serif" font-size="14.00" fill="#000000">choose</text>
</g>
<!-- Files&#45;&gt;choose -->
<g id="edge31" class="edge">
<title>Files-&gt;choose</title>
<path fill="none" stroke="#000000" d="M245.825,-237.3902C230.7881,-225.6161 210.9475,-210.0805 194.4353,-197.1512"></path>
<polygon fill="#000000" stroke="#000000" points="196.1783,-194.0706 186.147,-190.6612 191.8627,-199.5821 196.1783,-194.0706"></polygon>
</g>
<!-- Edit&#45;&gt;Files -->
<g id="edge18" class="edge">
<title>Edit-&gt;Files</title>
<path fill="none" stroke="#000000" d="M268.8254,-350.0137C268.8254,-329.9517 268.8254,-303.5207 268.8254,-283.6953"></path>
<polygon fill="#000000" stroke="#000000" points="272.3255,-283.4431 268.8254,-273.4431 265.3255,-283.4431 272.3255,-283.4431"></polygon>
<text text-anchor="middle" x="285.5302" y="-319.6" font-family="Times,serif" font-size="14.00" fill="#000000">create</text>
<text text-anchor="middle" x="285.5302" y="-302.8" font-family="Times,serif" font-size="14.00" fill="#000000">new</text>
</g>
<!-- Page -->
<g id="node19" class="node">
<title>Page</title>
<path fill="#d3d3d3" stroke="#000000" d="M202.9694,-400.0019C202.9694,-400.0019 160.6814,-400.0019 160.6814,-400.0019 154.6814,-400.0019 148.6814,-394.0019 148.6814,-388.0019 148.6814,-388.0019 148.6814,-370.7981 148.6814,-370.7981 148.6814,-364.7981 154.6814,-358.7981 160.6814,-358.7981 160.6814,-358.7981 202.9694,-358.7981 202.9694,-358.7981 208.9694,-358.7981 214.9694,-364.7981 214.9694,-370.7981 214.9694,-370.7981 214.9694,-388.0019 214.9694,-388.0019 214.9694,-394.0019 208.9694,-400.0019 202.9694,-400.0019"></path>
<text text-anchor="middle" x="181.8254" y="-383.6" font-family="Times,serif" font-size="14.00" fill="#000000">fetch</text>
<text text-anchor="middle" x="181.8254" y="-366.8" font-family="Times,serif" font-size="14.00" fill="#000000">one page</text>
</g>
<!-- Sitemap&#45;&gt;Page -->
<g id="edge25" class="edge">
<title>Sitemap-&gt;Page</title>
<path fill="none" stroke="#000000" d="M126.8884,-445.7822C136.2352,-434.4881 147.9629,-420.3172 158.1798,-407.9718"></path>
<polygon fill="#000000" stroke="#000000" points="160.956,-410.1068 164.6354,-400.1713 155.5633,-405.6438 160.956,-410.1068"></polygon>
</g>
<!-- Sitemap&#45;&gt;Cache -->
<g id="edge26" class="edge">
<title>Sitemap-&gt;Cache</title>
<path fill="none" stroke="#000000" d="M106.9816,-445.7822C105.5128,-435.1335 103.6912,-421.9273 102.0606,-410.1051"></path>
<polygon fill="#000000" stroke="#000000" points="105.524,-409.5992 100.6904,-400.1713 98.5897,-410.5558 105.524,-409.5992"></polygon>
</g>
<!-- Page&#45;&gt;Files -->
<g id="edge28" class="edge">
<title>Page-&gt;Files</title>
<path fill="none" stroke="#000000" d="M193.9406,-358.6653C203.8852,-342.052 218.6181,-318.3402 232.967,-298.6 237.1255,-292.879 241.8076,-286.9304 246.3822,-281.3429"></path>
<polygon fill="#000000" stroke="#000000" points="249.2193,-283.4056 252.9343,-273.4834 243.8426,-278.9233 249.2193,-283.4056"></polygon>
<text text-anchor="middle" x="249.7546" y="-311.2" font-family="Times,serif" font-size="14.00" fill="#000000">cache</text>
</g>
<!-- Publish&#45;&gt;Schema -->
<g id="edge30" class="edge">
<title>Publish-&gt;Schema</title>
<path fill="none" stroke="#000000" d="M270.2535,-151.7953C269.4959,-132.716 267.7596,-103.6039 263.8254,-78.6 262.4182,-69.6564 260.3324,-60.0582 258.1981,-51.3032"></path>
<polygon fill="#000000" stroke="#000000" points="261.5628,-50.3328 255.7079,-41.5027 254.7784,-52.0566 261.5628,-50.3328"></polygon>
</g>
<!-- Cache&#45;&gt;Files -->
<g id="edge27" class="edge">
<title>Cache-&gt;Files</title>
<path fill="none" stroke="#000000" d="M125.759,-358.6755C147.9345,-342.2729 179.767,-318.8382 207.8254,-298.6 216.5191,-292.3293 225.9533,-285.6077 234.7451,-279.3789"></path>
<polygon fill="#000000" stroke="#000000" points="236.7886,-282.2206 242.9323,-273.5889 232.7468,-276.5053 236.7886,-282.2206"></polygon>
</g>
<!-- EditCode&#45;&gt;Plugins -->
<g id="edge20" class="edge">
<title>EditCode-&gt;Plugins</title>
<path fill="none" stroke="#000000" d="M506.6542,-448.3735C507.1584,-437.4083 507.8158,-423.1089 508.4013,-410.3748"></path>
<polygon fill="#000000" stroke="#000000" points="511.9081,-410.3043 508.8712,-400.154 504.9155,-409.9827 511.9081,-410.3043"></polygon>
</g>
<!-- Plugins&#45;&gt;Files -->
<g id="edge21" class="edge">
<title>Plugins-&gt;Files</title>
<path fill="none" stroke="#000000" d="M474.0055,-360.9698C431.1036,-338.8958 359.2443,-301.9226 312.9571,-278.1068"></path>
<polygon fill="#000000" stroke="#000000" points="314.5502,-274.9904 304.0568,-273.5274 311.3475,-281.2148 314.5502,-274.9904"></polygon>
</g>
<!-- Schema&#45;&gt;PWA -->
<g id="edge36" class="edge">
<title>Schema-&gt;PWA</title>
<path fill="none" stroke="#000000" d="M285.2629,-28.9353C318.0754,-38.8158 361.8254,-59.0336 361.8254,-96.6 361.8254,-466.4 361.8254,-466.4 361.8254,-466.4 361.8254,-487.6351 361.8254,-511.5572 361.8254,-530.0065"></path>
<polygon fill="#000000" stroke="#000000" points="358.3255,-530.175 361.8254,-540.1751 365.3255,-530.1751 358.3255,-530.175"></polygon>
<text text-anchor="middle" x="390.0109" y="-268" font-family="Times,serif" font-size="14.00" fill="#000000">what does</text>
<text text-anchor="middle" x="390.0109" y="-251.2" font-family="Times,serif" font-size="14.00" fill="#000000">update</text>
<text text-anchor="middle" x="390.0109" y="-234.4" font-family="Times,serif" font-size="14.00" fill="#000000">look like?</text>
</g>
<!-- choose&#45;&gt;SWCache -->
<g id="edge32" class="edge">
<title>choose-&gt;SWCache</title>
<path fill="none" stroke="#000000" d="M175.8973,-154.0509C182.5302,-144.7403 190.7075,-133.2618 198.0046,-123.0189"></path>
<polygon fill="#000000" stroke="#000000" points="200.9222,-124.9555 203.8739,-114.7801 195.221,-120.8939 200.9222,-124.9555"></polygon>
</g>
<!-- choose&#45;&gt;IndexDB -->
<g id="edge33" class="edge">
<title>choose-&gt;IndexDB</title>
<path fill="none" stroke="#000000" d="M154.3529,-154.0509C150.1827,-145.0196 145.0708,-133.9486 140.4513,-123.944"></path>
<polygon fill="#000000" stroke="#000000" points="143.5897,-122.3917 136.2199,-114.7801 137.2344,-125.3262 143.5897,-122.3917"></polygon>
</g>
</g>
</g></svg>
