<svg width="1182pt" height="333pt" xmlns="http://www.w3.org/2000/svg" xmlns:xlink="http://www.w3.org/1999/xlink" xmlns:ev="http://www.w3.org/2001/xml-events" style="overflow: hidden; "><g id="viewport-20230826161850447" class="svg-pan-zoom_viewport" transform="matrix(0.5218273997306824,0,0,0.5218273997306824,77.0999984741211,266.1131286621094)" style="transform: matrix(0.521827, 0, 0, 0.521827, 77.1, 266.113);">
<g id="graph0" class="graph" transform="scale(1 1) rotate(0) translate(4 329.0142)">
<title>%0</title>
<polygon fill="#ffffff" stroke="transparent" points="-4,4 -4,-329.0142 1178,-329.0142 1178,4 -4,4"></polygon>
<g id="clust1" class="cluster">
<title>cluster_1</title>
<polygon fill="none" stroke="#000000" points="8,-8 8,-317.0142 680,-317.0142 680,-8 8,-8"></polygon>
</g>
<g id="clust9" class="cluster">
<title>cluster_2</title>
<polygon fill="none" stroke="#000000" points="688,-152 688,-299.3071 1166,-299.3071 1166,-152 688,-152"></polygon>
</g>
<!-- author -->
<g id="node1" class="node">
<title>author</title>
<ellipse fill="#d3d3d3" stroke="#000000" cx="482" cy="-273.3071" rx="35.9154" ry="35.9154"></ellipse>
<text text-anchor="middle" x="482" y="-269.1071" font-family="Times,serif" font-size="14.00" fill="#000000">author</text>
</g>
<!-- pseudonym1 -->
<g id="node2" class="node">
<title>pseudonym1</title>
<path fill="#d3d3d3" stroke="#000000" d="M376.551,-198.8C376.551,-198.8 313.449,-198.8 313.449,-198.8 307.449,-198.8 301.449,-192.8 301.449,-186.8 301.449,-186.8 301.449,-174.8 301.449,-174.8 301.449,-168.8 307.449,-162.8 313.449,-162.8 313.449,-162.8 376.551,-162.8 376.551,-162.8 382.551,-162.8 388.551,-168.8 388.551,-174.8 388.551,-174.8 388.551,-186.8 388.551,-186.8 388.551,-192.8 382.551,-198.8 376.551,-198.8"></path>
<text text-anchor="middle" x="345" y="-176.6" font-family="Times,serif" font-size="14.00" fill="#000000">pseudonym1</text>
</g>
<!-- author&#45;&gt;pseudonym1 -->
<g id="edge1" class="edge">
<title>author-&gt;pseudonym1</title>
<path fill="none" stroke="#000000" d="M452.273,-253.2344C431.1528,-238.9733 402.7,-219.761 380.4046,-204.7064"></path>
<polygon fill="#000000" stroke="#000000" points="382.1292,-201.6477 371.8829,-198.9523 378.2119,-207.449 382.1292,-201.6477"></polygon>
</g>
<!-- pseudonym2 -->
<g id="node3" class="node">
<title>pseudonym2</title>
<path fill="#d3d3d3" stroke="#000000" d="M513.551,-198.8C513.551,-198.8 450.449,-198.8 450.449,-198.8 444.449,-198.8 438.449,-192.8 438.449,-186.8 438.449,-186.8 438.449,-174.8 438.449,-174.8 438.449,-168.8 444.449,-162.8 450.449,-162.8 450.449,-162.8 513.551,-162.8 513.551,-162.8 519.551,-162.8 525.551,-168.8 525.551,-174.8 525.551,-174.8 525.551,-186.8 525.551,-186.8 525.551,-192.8 519.551,-198.8 513.551,-198.8"></path>
<text text-anchor="middle" x="482" y="-176.6" font-family="Times,serif" font-size="14.00" fill="#000000">pseudonym2</text>
</g>
<!-- author&#45;&gt;pseudonym2 -->
<g id="edge2" class="edge">
<title>author-&gt;pseudonym2</title>
<path fill="none" stroke="#000000" d="M482,-237.5414C482,-228.1435 482,-218.1357 482,-209.1834"></path>
<polygon fill="#000000" stroke="#000000" points="485.5001,-208.8989 482,-198.8989 478.5001,-208.8989 485.5001,-208.8989"></polygon>
</g>
<!-- pseudonym3 -->
<g id="node4" class="node">
<title>pseudonym3</title>
<path fill="#d3d3d3" stroke="#000000" d="M619.551,-198.8C619.551,-198.8 556.449,-198.8 556.449,-198.8 550.449,-198.8 544.449,-192.8 544.449,-186.8 544.449,-186.8 544.449,-174.8 544.449,-174.8 544.449,-168.8 550.449,-162.8 556.449,-162.8 556.449,-162.8 619.551,-162.8 619.551,-162.8 625.551,-162.8 631.551,-168.8 631.551,-174.8 631.551,-174.8 631.551,-186.8 631.551,-186.8 631.551,-192.8 625.551,-198.8 619.551,-198.8"></path>
<text text-anchor="middle" x="588" y="-176.6" font-family="Times,serif" font-size="14.00" fill="#000000">pseudonym3</text>
</g>
<!-- author&#45;&gt;pseudonym3 -->
<g id="edge3" class="edge">
<title>author-&gt;pseudonym3</title>
<path fill="none" stroke="#000000" d="M509.0225,-249.7243C524.3791,-236.3225 543.6014,-219.5471 559.2369,-205.9018"></path>
<polygon fill="#000000" stroke="#000000" points="561.8139,-208.2982 567.0469,-199.0859 557.2112,-203.0242 561.8139,-208.2982"></polygon>
</g>
<!-- wiki1A -->
<g id="node5" class="node">
<title>wiki1A</title>
<path fill="#d3d3d3" stroke="#000000" d="M150.9944,-124C150.9944,-124 117.0056,-124 117.0056,-124 111.0056,-124 105.0056,-118 105.0056,-112 105.0056,-112 105.0056,-100 105.0056,-100 105.0056,-94 111.0056,-88 117.0056,-88 117.0056,-88 150.9944,-88 150.9944,-88 156.9944,-88 162.9944,-94 162.9944,-100 162.9944,-100 162.9944,-112 162.9944,-112 162.9944,-118 156.9944,-124 150.9944,-124"></path>
<text text-anchor="middle" x="134" y="-101.8" font-family="Times,serif" font-size="14.00" fill="#000000">wiki1A</text>
</g>
<!-- pseudonym1&#45;&gt;wiki1A -->
<g id="edge4" class="edge">
<title>pseudonym1-&gt;wiki1A</title>
<path fill="none" stroke="#000000" d="M301.2807,-165.3014C263.4354,-151.8852 209.2136,-132.6634 172.8625,-119.7768"></path>
<polygon fill="#000000" stroke="#000000" points="173.7067,-116.3627 163.1119,-116.3202 171.3677,-122.9604 173.7067,-116.3627"></polygon>
</g>
<!-- wiki1B -->
<g id="node6" class="node">
<title>wiki1B</title>
<path fill="#d3d3d3" stroke="#000000" d="M297.7248,-124C297.7248,-124 264.2752,-124 264.2752,-124 258.2752,-124 252.2752,-118 252.2752,-112 252.2752,-112 252.2752,-100 252.2752,-100 252.2752,-94 258.2752,-88 264.2752,-88 264.2752,-88 297.7248,-88 297.7248,-88 303.7248,-88 309.7248,-94 309.7248,-100 309.7248,-100 309.7248,-112 309.7248,-112 309.7248,-118 303.7248,-124 297.7248,-124"></path>
<text text-anchor="middle" x="281" y="-101.8" font-family="Times,serif" font-size="14.00" fill="#000000">wiki1B</text>
</g>
<!-- pseudonym1&#45;&gt;wiki1B -->
<g id="edge5" class="edge">
<title>pseudonym1-&gt;wiki1B</title>
<path fill="none" stroke="#000000" d="M329.5074,-162.693C321.6259,-153.4815 311.9047,-142.1199 303.2394,-131.9923"></path>
<polygon fill="#000000" stroke="#000000" points="305.7324,-129.5224 296.5718,-124.1995 300.4136,-134.0733 305.7324,-129.5224"></polygon>
</g>
<!-- wiki1C -->
<g id="node7" class="node">
<title>wiki1C</title>
<path fill="#d3d3d3" stroke="#000000" d="M372.7248,-124C372.7248,-124 339.2752,-124 339.2752,-124 333.2752,-124 327.2752,-118 327.2752,-112 327.2752,-112 327.2752,-100 327.2752,-100 327.2752,-94 333.2752,-88 339.2752,-88 339.2752,-88 372.7248,-88 372.7248,-88 378.7248,-88 384.7248,-94 384.7248,-100 384.7248,-100 384.7248,-112 384.7248,-112 384.7248,-118 378.7248,-124 372.7248,-124"></path>
<text text-anchor="middle" x="356" y="-101.8" font-family="Times,serif" font-size="14.00" fill="#000000">wiki1C</text>
</g>
<!-- pseudonym1&#45;&gt;wiki1C -->
<g id="edge6" class="edge">
<title>pseudonym1-&gt;wiki1C</title>
<path fill="none" stroke="#000000" d="M347.6628,-162.693C348.9235,-154.1199 350.4582,-143.6844 351.8655,-134.1147"></path>
<polygon fill="#000000" stroke="#000000" points="355.3313,-134.6024 353.3236,-124.1995 348.4058,-133.5838 355.3313,-134.6024"></polygon>
</g>
<!-- wiki2A -->
<g id="node12" class="node">
<title>wiki2A</title>
<path fill="#d3d3d3" stroke="#000000" d="M487.9944,-124C487.9944,-124 454.0056,-124 454.0056,-124 448.0056,-124 442.0056,-118 442.0056,-112 442.0056,-112 442.0056,-100 442.0056,-100 442.0056,-94 448.0056,-88 454.0056,-88 454.0056,-88 487.9944,-88 487.9944,-88 493.9944,-88 499.9944,-94 499.9944,-100 499.9944,-100 499.9944,-112 499.9944,-112 499.9944,-118 493.9944,-124 487.9944,-124"></path>
<text text-anchor="middle" x="471" y="-101.8" font-family="Times,serif" font-size="14.00" fill="#000000">wiki2A</text>
</g>
<!-- pseudonym2&#45;&gt;wiki2A -->
<g id="edge11" class="edge">
<title>pseudonym2-&gt;wiki2A</title>
<path fill="none" stroke="#000000" d="M479.3372,-162.693C478.0765,-154.1199 476.5418,-143.6844 475.1345,-134.1147"></path>
<polygon fill="#000000" stroke="#000000" points="478.5942,-133.5838 473.6764,-124.1995 471.6687,-134.6024 478.5942,-133.5838"></polygon>
</g>
<!-- wiki2B -->
<g id="node13" class="node">
<title>wiki2B</title>
<path fill="#d3d3d3" stroke="#000000" d="M567.7248,-124C567.7248,-124 534.2752,-124 534.2752,-124 528.2752,-124 522.2752,-118 522.2752,-112 522.2752,-112 522.2752,-100 522.2752,-100 522.2752,-94 528.2752,-88 534.2752,-88 534.2752,-88 567.7248,-88 567.7248,-88 573.7248,-88 579.7248,-94 579.7248,-100 579.7248,-100 579.7248,-112 579.7248,-112 579.7248,-118 573.7248,-124 567.7248,-124"></path>
<text text-anchor="middle" x="551" y="-101.8" font-family="Times,serif" font-size="14.00" fill="#000000">wiki2B</text>
</g>
<!-- pseudonym2&#45;&gt;wiki2B -->
<g id="edge12" class="edge">
<title>pseudonym2-&gt;wiki2B</title>
<path fill="none" stroke="#000000" d="M498.703,-162.693C507.2843,-153.3903 517.8886,-141.8947 527.3003,-131.6919"></path>
<polygon fill="#000000" stroke="#000000" points="530.0039,-133.923 534.2117,-124.1995 524.8587,-129.1767 530.0039,-133.923"></polygon>
</g>
<!-- wiki2C -->
<g id="node14" class="node">
<title>wiki2C</title>
<path fill="#d3d3d3" stroke="#000000" d="M642.7248,-124C642.7248,-124 609.2752,-124 609.2752,-124 603.2752,-124 597.2752,-118 597.2752,-112 597.2752,-112 597.2752,-100 597.2752,-100 597.2752,-94 603.2752,-88 609.2752,-88 609.2752,-88 642.7248,-88 642.7248,-88 648.7248,-88 654.7248,-94 654.7248,-100 654.7248,-100 654.7248,-112 654.7248,-112 654.7248,-118 648.7248,-124 642.7248,-124"></path>
<text text-anchor="middle" x="626" y="-101.8" font-family="Times,serif" font-size="14.00" fill="#000000">wiki2C</text>
</g>
<!-- pseudonym2&#45;&gt;wiki2C -->
<g id="edge13" class="edge">
<title>pseudonym2-&gt;wiki2C</title>
<path fill="none" stroke="#000000" d="M514.9973,-162.673C521.6032,-159.0996 528.5077,-155.4039 535,-152 552.2999,-142.9297 571.5928,-133.1324 587.9466,-124.9198"></path>
<polygon fill="#000000" stroke="#000000" points="589.8254,-127.8934 597.1986,-120.2851 586.6901,-121.6348 589.8254,-127.8934"></polygon>
</g>
<!-- page1A1 -->
<g id="node8" class="node">
<title>page1A1</title>
<path fill="#d3d3d3" stroke="#000000" d="M70.0374,-52C70.0374,-52 27.9626,-52 27.9626,-52 21.9626,-52 15.9626,-46 15.9626,-40 15.9626,-40 15.9626,-28 15.9626,-28 15.9626,-22 21.9626,-16 27.9626,-16 27.9626,-16 70.0374,-16 70.0374,-16 76.0374,-16 82.0374,-22 82.0374,-28 82.0374,-28 82.0374,-40 82.0374,-40 82.0374,-46 76.0374,-52 70.0374,-52"></path>
<text text-anchor="middle" x="49" y="-29.8" font-family="Times,serif" font-size="14.00" fill="#000000">page1A1</text>
</g>
<!-- wiki1A&#45;&gt;page1A1 -->
<g id="edge7" class="edge">
<title>wiki1A-&gt;page1A1</title>
<path fill="none" stroke="#000000" d="M112.5509,-87.8314C102.1822,-79.0485 89.5771,-68.3712 78.3354,-58.8489"></path>
<polygon fill="#000000" stroke="#000000" points="80.3349,-55.9556 70.4422,-52.1628 75.8105,-61.297 80.3349,-55.9556"></polygon>
</g>
<!-- page1A2 -->
<g id="node9" class="node">
<title>page1A2</title>
<path fill="#d3d3d3" stroke="#000000" d="M155.0374,-52C155.0374,-52 112.9626,-52 112.9626,-52 106.9626,-52 100.9626,-46 100.9626,-40 100.9626,-40 100.9626,-28 100.9626,-28 100.9626,-22 106.9626,-16 112.9626,-16 112.9626,-16 155.0374,-16 155.0374,-16 161.0374,-16 167.0374,-22 167.0374,-28 167.0374,-28 167.0374,-40 167.0374,-40 167.0374,-46 161.0374,-52 155.0374,-52"></path>
<text text-anchor="middle" x="134" y="-29.8" font-family="Times,serif" font-size="14.00" fill="#000000">page1A2</text>
</g>
<!-- wiki1A&#45;&gt;page1A2 -->
<g id="edge8" class="edge">
<title>wiki1A-&gt;page1A2</title>
<path fill="none" stroke="#000000" d="M134,-87.8314C134,-80.131 134,-70.9743 134,-62.4166"></path>
<polygon fill="#000000" stroke="#000000" points="137.5001,-62.4132 134,-52.4133 130.5001,-62.4133 137.5001,-62.4132"></polygon>
</g>
<!-- page1B1 -->
<g id="node10" class="node">
<title>page1B1</title>
<path fill="#d3d3d3" stroke="#000000" d="M238.7662,-52C238.7662,-52 197.2338,-52 197.2338,-52 191.2338,-52 185.2338,-46 185.2338,-40 185.2338,-40 185.2338,-28 185.2338,-28 185.2338,-22 191.2338,-16 197.2338,-16 197.2338,-16 238.7662,-16 238.7662,-16 244.7662,-16 250.7662,-22 250.7662,-28 250.7662,-28 250.7662,-40 250.7662,-40 250.7662,-46 244.7662,-52 238.7662,-52"></path>
<text text-anchor="middle" x="218" y="-29.8" font-family="Times,serif" font-size="14.00" fill="#000000">page1B1</text>
</g>
<!-- wiki1B&#45;&gt;page1B1 -->
<g id="edge9" class="edge">
<title>wiki1B-&gt;page1B1</title>
<path fill="none" stroke="#000000" d="M265.1024,-87.8314C257.7722,-79.454 248.934,-69.3531 240.9031,-60.1749"></path>
<polygon fill="#000000" stroke="#000000" points="243.3307,-57.6343 234.1116,-52.4133 238.0627,-62.2438 243.3307,-57.6343"></polygon>
</g>
<!-- page1B2 -->
<g id="node11" class="node">
<title>page1B2</title>
<path fill="#d3d3d3" stroke="#000000" d="M322.7662,-52C322.7662,-52 281.2338,-52 281.2338,-52 275.2338,-52 269.2338,-46 269.2338,-40 269.2338,-40 269.2338,-28 269.2338,-28 269.2338,-22 275.2338,-16 281.2338,-16 281.2338,-16 322.7662,-16 322.7662,-16 328.7662,-16 334.7662,-22 334.7662,-28 334.7662,-28 334.7662,-40 334.7662,-40 334.7662,-46 328.7662,-52 322.7662,-52"></path>
<text text-anchor="middle" x="302" y="-29.8" font-family="Times,serif" font-size="14.00" fill="#000000">page1B2</text>
</g>
<!-- wiki1B&#45;&gt;page1B2 -->
<g id="edge10" class="edge">
<title>wiki1B-&gt;page1B2</title>
<path fill="none" stroke="#000000" d="M286.2992,-87.8314C288.5698,-80.0463 291.2746,-70.7729 293.794,-62.1347"></path>
<polygon fill="#000000" stroke="#000000" points="297.1894,-62.9933 296.6295,-52.4133 290.4694,-61.0332 297.1894,-62.9933"></polygon>
</g>
<!-- page2A1 -->
<g id="node15" class="node">
<title>page2A1</title>
<path fill="#d3d3d3" stroke="#000000" d="M407.0374,-52C407.0374,-52 364.9626,-52 364.9626,-52 358.9626,-52 352.9626,-46 352.9626,-40 352.9626,-40 352.9626,-28 352.9626,-28 352.9626,-22 358.9626,-16 364.9626,-16 364.9626,-16 407.0374,-16 407.0374,-16 413.0374,-16 419.0374,-22 419.0374,-28 419.0374,-28 419.0374,-40 419.0374,-40 419.0374,-46 413.0374,-52 407.0374,-52"></path>
<text text-anchor="middle" x="386" y="-29.8" font-family="Times,serif" font-size="14.00" fill="#000000">page2A1</text>
</g>
<!-- wiki2A&#45;&gt;page2A1 -->
<g id="edge14" class="edge">
<title>wiki2A-&gt;page2A1</title>
<path fill="none" stroke="#000000" d="M449.5509,-87.8314C439.1822,-79.0485 426.5771,-68.3712 415.3354,-58.8489"></path>
<polygon fill="#000000" stroke="#000000" points="417.3349,-55.9556 407.4422,-52.1628 412.8105,-61.297 417.3349,-55.9556"></polygon>
</g>
<!-- page2A2 -->
<g id="node16" class="node">
<title>page2A2</title>
<path fill="#d3d3d3" stroke="#000000" d="M492.0374,-52C492.0374,-52 449.9626,-52 449.9626,-52 443.9626,-52 437.9626,-46 437.9626,-40 437.9626,-40 437.9626,-28 437.9626,-28 437.9626,-22 443.9626,-16 449.9626,-16 449.9626,-16 492.0374,-16 492.0374,-16 498.0374,-16 504.0374,-22 504.0374,-28 504.0374,-28 504.0374,-40 504.0374,-40 504.0374,-46 498.0374,-52 492.0374,-52"></path>
<text text-anchor="middle" x="471" y="-29.8" font-family="Times,serif" font-size="14.00" fill="#000000">page2A2</text>
</g>
<!-- wiki2A&#45;&gt;page2A2 -->
<g id="edge15" class="edge">
<title>wiki2A-&gt;page2A2</title>
<path fill="none" stroke="#000000" d="M471,-87.8314C471,-80.131 471,-70.9743 471,-62.4166"></path>
<polygon fill="#000000" stroke="#000000" points="474.5001,-62.4132 471,-52.4133 467.5001,-62.4133 474.5001,-62.4132"></polygon>
</g>
<!-- page2B1 -->
<g id="node17" class="node">
<title>page2B1</title>
<path fill="#d3d3d3" stroke="#000000" d="M575.7662,-52C575.7662,-52 534.2338,-52 534.2338,-52 528.2338,-52 522.2338,-46 522.2338,-40 522.2338,-40 522.2338,-28 522.2338,-28 522.2338,-22 528.2338,-16 534.2338,-16 534.2338,-16 575.7662,-16 575.7662,-16 581.7662,-16 587.7662,-22 587.7662,-28 587.7662,-28 587.7662,-40 587.7662,-40 587.7662,-46 581.7662,-52 575.7662,-52"></path>
<text text-anchor="middle" x="555" y="-29.8" font-family="Times,serif" font-size="14.00" fill="#000000">page2B1</text>
</g>
<!-- wiki2B&#45;&gt;page2B1 -->
<g id="edge16" class="edge">
<title>wiki2B-&gt;page2B1</title>
<path fill="none" stroke="#000000" d="M552.0094,-87.8314C552.4372,-80.131 552.9459,-70.9743 553.4213,-62.4166"></path>
<polygon fill="#000000" stroke="#000000" points="556.9169,-62.592 553.977,-52.4133 549.9276,-62.2037 556.9169,-62.592"></polygon>
</g>
<!-- page2B2 -->
<g id="node18" class="node">
<title>page2B2</title>
<path fill="#d3d3d3" stroke="#000000" d="M659.7662,-52C659.7662,-52 618.2338,-52 618.2338,-52 612.2338,-52 606.2338,-46 606.2338,-40 606.2338,-40 606.2338,-28 606.2338,-28 606.2338,-22 612.2338,-16 618.2338,-16 618.2338,-16 659.7662,-16 659.7662,-16 665.7662,-16 671.7662,-22 671.7662,-28 671.7662,-28 671.7662,-40 671.7662,-40 671.7662,-46 665.7662,-52 659.7662,-52"></path>
<text text-anchor="middle" x="639" y="-29.8" font-family="Times,serif" font-size="14.00" fill="#000000">page2B2</text>
</g>
<!-- wiki2B&#45;&gt;page2B2 -->
<g id="edge17" class="edge">
<title>wiki2B-&gt;page2B2</title>
<path fill="none" stroke="#000000" d="M573.2061,-87.8314C584.045,-78.9632 597.2444,-68.1637 608.9678,-58.5718"></path>
<polygon fill="#000000" stroke="#000000" points="611.2777,-61.2041 616.801,-52.1628 606.845,-55.7864 611.2777,-61.2041"></polygon>
</g>
<!-- wiki -->
<g id="node19" class="node">
<title>wiki</title>
<path fill="#d3d3d3" stroke="#000000" d="M904,-291.3071C904,-291.3071 874,-291.3071 874,-291.3071 868,-291.3071 862,-285.3071 862,-279.3071 862,-279.3071 862,-267.3071 862,-267.3071 862,-261.3071 868,-255.3071 874,-255.3071 874,-255.3071 904,-255.3071 904,-255.3071 910,-255.3071 916,-261.3071 916,-267.3071 916,-267.3071 916,-279.3071 916,-279.3071 916,-285.3071 910,-291.3071 904,-291.3071"></path>
<text text-anchor="middle" x="889" y="-269.1071" font-family="Times,serif" font-size="14.00" fill="#000000">wiki</text>
</g>
<!-- sitemap -->
<g id="node20" class="node">
<title>sitemap</title>
<path fill="#d3d3d3" stroke="#000000" d="M743.5473,-198.8C743.5473,-198.8 708.4527,-198.8 708.4527,-198.8 702.4527,-198.8 696.4527,-192.8 696.4527,-186.8 696.4527,-186.8 696.4527,-174.8 696.4527,-174.8 696.4527,-168.8 702.4527,-162.8 708.4527,-162.8 708.4527,-162.8 743.5473,-162.8 743.5473,-162.8 749.5473,-162.8 755.5473,-168.8 755.5473,-174.8 755.5473,-174.8 755.5473,-186.8 755.5473,-186.8 755.5473,-192.8 749.5473,-198.8 743.5473,-198.8"></path>
<text text-anchor="middle" x="726" y="-176.6" font-family="Times,serif" font-size="14.00" fill="#000000">sitemap</text>
</g>
<!-- wiki&#45;&gt;sitemap -->
<g id="edge18" class="edge">
<title>wiki-&gt;sitemap</title>
<path fill="none" stroke="#000000" d="M861.7175,-257.8235C835.1065,-242.721 794.3819,-219.6087 764.4837,-202.6406"></path>
<polygon fill="#000000" stroke="#000000" points="766.0046,-199.4794 755.5801,-197.5875 762.5495,-205.5673 766.0046,-199.4794"></polygon>
</g>
<!-- export -->
<g id="node21" class="node">
<title>export</title>
<path fill="#d3d3d3" stroke="#000000" d="M816,-198.8C816,-198.8 786,-198.8 786,-198.8 780,-198.8 774,-192.8 774,-186.8 774,-186.8 774,-174.8 774,-174.8 774,-168.8 780,-162.8 786,-162.8 786,-162.8 816,-162.8 816,-162.8 822,-162.8 828,-168.8 828,-174.8 828,-174.8 828,-186.8 828,-186.8 828,-192.8 822,-198.8 816,-198.8"></path>
<text text-anchor="middle" x="801" y="-176.6" font-family="Times,serif" font-size="14.00" fill="#000000">export</text>
</g>
<!-- wiki&#45;&gt;export -->
<g id="edge19" class="edge">
<title>wiki-&gt;export</title>
<path fill="none" stroke="#000000" d="M871.614,-255.0307C858.4765,-241.2202 840.2684,-222.0796 825.6322,-206.6938"></path>
<polygon fill="#000000" stroke="#000000" points="827.7781,-203.8715 818.3499,-199.0385 822.7064,-208.6962 827.7781,-203.8715"></polygon>
</g>
<!-- search index -->
<g id="node22" class="node">
<title>search index</title>
<path fill="#d3d3d3" stroke="#000000" d="M920.3549,-198.8C920.3549,-198.8 857.6451,-198.8 857.6451,-198.8 851.6451,-198.8 845.6451,-192.8 845.6451,-186.8 845.6451,-186.8 845.6451,-174.8 845.6451,-174.8 845.6451,-168.8 851.6451,-162.8 857.6451,-162.8 857.6451,-162.8 920.3549,-162.8 920.3549,-162.8 926.3549,-162.8 932.3549,-168.8 932.3549,-174.8 932.3549,-174.8 932.3549,-186.8 932.3549,-186.8 932.3549,-192.8 926.3549,-198.8 920.3549,-198.8"></path>
<text text-anchor="middle" x="889" y="-176.6" font-family="Times,serif" font-size="14.00" fill="#000000">search index</text>
</g>
<!-- wiki&#45;&gt;search index -->
<g id="edge20" class="edge">
<title>wiki-&gt;search index</title>
<path fill="none" stroke="#000000" d="M889,-255.0307C889,-241.9804 889,-224.1707 889,-209.2672"></path>
<polygon fill="#000000" stroke="#000000" points="892.5001,-209.0384 889,-199.0385 885.5001,-209.0385 892.5001,-209.0384"></polygon>
</g>
<!-- author\npseudonym -->
<g id="node23" class="node">
<title>author\npseudonym</title>
<path fill="#d3d3d3" stroke="#000000" d="M1018.0511,-201.4019C1018.0511,-201.4019 961.9489,-201.4019 961.9489,-201.4019 955.9489,-201.4019 949.9489,-195.4019 949.9489,-189.4019 949.9489,-189.4019 949.9489,-172.1981 949.9489,-172.1981 949.9489,-166.1981 955.9489,-160.1981 961.9489,-160.1981 961.9489,-160.1981 1018.0511,-160.1981 1018.0511,-160.1981 1024.0511,-160.1981 1030.0511,-166.1981 1030.0511,-172.1981 1030.0511,-172.1981 1030.0511,-189.4019 1030.0511,-189.4019 1030.0511,-195.4019 1024.0511,-201.4019 1018.0511,-201.4019"></path>
<text text-anchor="middle" x="990" y="-185" font-family="Times,serif" font-size="14.00" fill="#000000">author</text>
<text text-anchor="middle" x="990" y="-168.2" font-family="Times,serif" font-size="14.00" fill="#000000">pseudonym</text>
</g>
<!-- wiki&#45;&gt;author\npseudonym -->
<g id="edge21" class="edge">
<title>wiki-&gt;author\npseudonym</title>
<path fill="none" stroke="#000000" d="M908.9543,-255.0307C923.3806,-241.8175 943.1338,-223.7253 959.5271,-208.7105"></path>
<polygon fill="#000000" stroke="#000000" points="962.2564,-210.9569 967.2668,-201.6217 957.5284,-205.7949 962.2564,-210.9569"></polygon>
</g>
<!-- public keys\n(and change log) -->
<g id="node24" class="node">
<title>public keys\n(and change log)</title>
<path fill="#d3d3d3" stroke="#000000" d="M1146.0702,-201.4019C1146.0702,-201.4019 1059.9298,-201.4019 1059.9298,-201.4019 1053.9298,-201.4019 1047.9298,-195.4019 1047.9298,-189.4019 1047.9298,-189.4019 1047.9298,-172.1981 1047.9298,-172.1981 1047.9298,-166.1981 1053.9298,-160.1981 1059.9298,-160.1981 1059.9298,-160.1981 1146.0702,-160.1981 1146.0702,-160.1981 1152.0702,-160.1981 1158.0702,-166.1981 1158.0702,-172.1981 1158.0702,-172.1981 1158.0702,-189.4019 1158.0702,-189.4019 1158.0702,-195.4019 1152.0702,-201.4019 1146.0702,-201.4019"></path>
<text text-anchor="middle" x="1103" y="-185" font-family="Times,serif" font-size="14.00" fill="#000000">public keys</text>
<text text-anchor="middle" x="1103" y="-168.2" font-family="Times,serif" font-size="14.00" fill="#000000">(and change log)</text>
</g>
<!-- wiki&#45;&gt;public keys\n(and change log) -->
<g id="edge22" class="edge">
<title>wiki-&gt;public keys\n(and change log)</title>
<path fill="none" stroke="#000000" d="M916.1032,-261.591C948.5173,-247.5792 1003.6586,-223.7429 1045.6704,-205.5822"></path>
<polygon fill="#000000" stroke="#000000" points="1047.1714,-208.7465 1054.9617,-201.5658 1044.3938,-202.3211 1047.1714,-208.7465"></polygon>
</g>
</g>
</g></svg>
